<?xml version="1.0" encoding="utf-8"?>
<!-- Generator: Adobe Illustrator 13.0.0, SVG Export Plug-In . SVG Version: 6.00 Build 14948)  -->
<!DOCTYPE svg PUBLIC "-//W3C//DTD SVG 1.1//EN" "http://www.w3.org/Graphics/SVG/1.1/DTD/svg11.dtd">
<svg version="1.1" id="Layer_1" xmlns="http://www.w3.org/2000/svg" xmlns:xlink="http://www.w3.org/1999/xlink" x="0px" y="0px"
	 width="360px" height="390px" viewBox="0 0 360 390" enable-background="new 0 0 360 390" xml:space="preserve">
<g>
	<ellipse fill="#C6E0E9" cx="228.979" cy="326.657" rx="10.323" ry="5.355"/>
	<ellipse fill="#C6E0E9" cx="131.021" cy="326.657" rx="10.323" ry="5.355"/>
	<path fill="#EFBB8F" d="M230.995,309.777c-12.89,3.019-28.563,4.795-45.479,4.795c-22.347,0-42.531-3.094-56.974-8.071
		c1.47,9.083,2.029,21.376-2.339,32.563c-4.977,12.75,14.883,29.398,31.277,40.529c1.498,4.459,2.721,8.1,3.498,10.402h38.043
		c0.773-2.305,2-5.943,3.498-10.402c16.394-11.131,36.252-27.779,31.275-40.529C229.936,329.172,229.932,318.422,230.995,309.777z"
		/>
	<g>
		<path fill="#EFBB8F" d="M255.657,80.268c0,22,75.535,212.175-69.25,212.175c-153.569,0-84.673-190.175-84.673-212.175
			c0-22.005,34.459-39.84,76.96-39.84C221.198,40.428,255.657,58.263,255.657,80.268z"/>
		<path fill="#D08F5E" d="M180.272,132.203c0,0-1.114,34.527,15.234,53.149c7.434,5.92,11.768,2.198,14.489,0.845
			c2.726-1.354,4.325,7.391,1.603,16.529c-2.725,9.14-13.871,11.059-18.662,9.82c-5.584-1.451,16.689,0.729,17.061-15.857
			c-0.124-7.277,1.52-8.404-5.499-5.694C194.089,195.009,177.672,173.334,180.272,132.203z"/>
		<path fill="#352E24" d="M236.293,50.154c-40.236-19.834-85.968-24.794-106.657-4.783c-3.486,3.372-19.914,2.002-33.488,42.337
			l-0.056,0.009c-1.462,5.63-4.261,9.858-4.261,16.878c0,6.744,1.196,15.136,1.344,21.233l4.327-9.463
			c-1.479-4.961,9.573-17.064,10.142-29.327c0.022-0.455,0.074-0.896,0.111-1.344l-0.032,0.006c0.33-2.252,0.611-4.54,0.759-6.895
			c-0.071-0.687-0.105-1.39-0.105-2.096c0-11.243,9.045-20.361,20.204-20.361c1.764,0,3.464,0.25,5.095,0.677
			c0.051,0.013,0.131,0.017,0.177,0.03c0.075,0.02,0.138,0.051,0.209,0.07c0.639,0.183,1.258,0.394,1.868,0.632
			c0.075,0.029,0.155,0.052,0.228,0.083c3.942,1.611,7.257,4.436,9.5,8.013c3.395,4.592,5.218,8.91,7.525,7.846
			c16.868-7.791,47.82-20.776,66.066-20.776c18.244,0,32.161,15.296,33.035,34.115c0.567,12.263,11.62,24.366,10.143,29.327
			l4.324,9.463c0.149-6.098,1.347-14.489,1.347-21.233C268.098,75.702,254.688,59.217,236.293,50.154z"/>
		<g>
			<path fill="#EFBB8F" d="M85.122,143.292c-4.645,11.043-5.265,29.546-15.216,25.297c-9.951-4.247-19.192-25.16-14.547-36.206
				c4.642-11.047,16.468-16.559,26.419-12.314C91.727,124.317,89.764,132.245,85.122,143.292z"/>
			<path fill="#D08F5E" d="M83.91,140.947c0.846,0.068,1.589-0.05,2.266-0.249c0.701-1.783,1.313-3.479,1.775-5.076
				c-1.093-1.349-2.792-3.438-5.462-6.723c-7.421-9.128-16.754,2.785-16.754,2.785s10.925-3.446,13.8,2.203
				c0,0-20.354-0.613-8.93,24.648C71.156,152.905,66.832,134.139,83.91,140.947z"/>
		</g>
		<g>
			<path fill="#EFBB8F" d="M274.878,148.015c4.646,11.044,5.265,29.545,15.215,25.298c9.949-4.247,19.19-25.162,14.548-36.21
				c-4.642-11.043-16.47-16.556-26.418-12.309C268.271,129.04,270.236,136.969,274.878,148.015z"/>
			<path fill="#D08F5E" d="M276.089,145.67c-0.846,0.071-1.592-0.053-2.266-0.249c-0.701-1.784-1.313-3.481-1.774-5.08
				c1.094-1.344,2.792-3.435,5.465-6.717c7.42-9.129,16.752,2.781,16.752,2.781s-10.925-3.447-13.8,2.201
				c0,0,20.354-0.606,8.931,24.652C288.842,157.628,293.168,138.863,276.089,145.67z"/>
		</g>
		<path fill="#352E24" d="M262.564,116.438c2.644,16.764,11.5,56.504,9.396,70.917c-0.02,0.137-0.029,0.271-0.063,0.407
			c-0.269,1.622-0.678,2.911-1.277,3.756c-0.783,1.113-1.998,2.253-3.564,3.407c-12.459,11.767-46.902,25.63-87.254,25.63
			c-0.357,0-0.709-0.012-1.067-0.012c-0.159,0.012-0.328,0.034-0.485,0.049c-0.168-0.021-0.346-0.045-0.513-0.063
			c-37.246-0.44-68.875-12.564-82.469-23.653c-2.741-1.699-4.808-3.378-5.957-5.003c-5.781-8.178,5.083-56.206,8.057-75.079
			c-21.19,30.915-30.431,80.437-30.431,112.261c0,27.269,12.265,50.416,32.372,66.432c16.092,12.815,37.204,21.066,61.106,23.16
			c3.063,0.269,6.045,0.483,8.949,0.654c9.072,0.244,19.055-0.04,30.155-1.007c24.453-2.146,45.982-10.735,62.209-24.063
			c19.447-15.977,31.27-38.768,31.27-65.528C292.999,196.875,283.757,147.354,262.564,116.438z"/>
		<path fill="#FB5D59" d="M179.968,228.025c-28.879,0-47.68-3.635-47.68-3.635c-3.785-0.041-5.446,1.727-5.446,4.162
			c0,8.715,30.262,28.993,45.823,35.072c1.395,0.652,2.881,1.143,4.439,1.432c0.907,0.209,1.704,0.32,2.363,0.32
			c0.169,0,0.333-0.02,0.501-0.023c0.169,0.006,0.332,0.023,0.501,0.023c0.657,0,1.456-0.111,2.362-0.32
			c1.56-0.289,3.044-0.779,4.44-1.432c15.56-6.079,45.821-26.357,45.821-35.072c0-2.437-1.659-4.203-5.446-4.162
			C227.646,224.391,207.729,228.025,179.968,228.025z"/>
		<path fill="#EDF2F6" d="M179.909,251.012h0.117c22.708,0.646,48.132-15.209,52.422-24.721c-0.792-1.184-2.341-1.93-4.802-1.9
			c0,0-19.92,3.635-47.679,3.635c-28.879,0-47.68-3.635-47.68-3.635c-2.457-0.027-4.007,0.717-4.8,1.906
			C131.779,235.805,157.205,251.656,179.909,251.012z"/>
		<g>
			<g>
				<path fill="#352E24" d="M110.37,115.921c-0.094-2.246,1.306-5.166,3.108-6.489l38.182-28.014
					c1.804-1.325,3.965-0.699,4.804,1.384l13.179,32.783c0.837,2.081-0.298,3.922-2.522,4.09l-52.369,3.872
					c-2.226,0.161-4.123-1.541-4.218-3.787L110.37,115.921z"/>
			</g>
			<g>
				<path fill="#352E24" d="M246.759,116.862c0.095-2.241-1.303-5.165-3.104-6.484l-38.187-28.016
					c-1.803-1.324-3.964-0.701-4.801,1.383l-13.179,32.78c-0.84,2.087,0.298,3.926,2.521,4.091l52.37,3.87
					c2.229,0.164,4.122-1.539,4.219-3.783L246.759,116.862z"/>
			</g>
			<g>
				<path fill="#FFFFFF" d="M158.77,165.984c3.798-4.893,5.221-12.677,3.894-19.143c-2.348-11.438-12.65-13.81-23.548-12.747
					c-10.238,1-17.041,8.048-17.041,18.413c0,1.175,0.248,2.308,0.656,3.408C136.796,157.137,149.321,160.769,158.77,165.984z"/>
				<path fill="#10CAB7" d="M152.495,162.941c2.874-2.557,4.722-6.264,4.722-10.434c0-7.724-6.214-13.986-13.882-13.986
					c-7.666,0-13.88,6.263-13.88,13.986c0,1.513,0.3,2.94,0.74,4.305C138.423,158.075,145.975,160.181,152.495,162.941z"/>
				<path fill="#334752" d="M139.116,134.095c-4.4,0.43-8.111,2.031-10.976,4.481c8.581,1.93,19.02,3.073,30.305,3.073
					c0.764,0,1.504-0.024,2.258-0.032C156.647,134.688,148.088,133.22,139.116,134.095z"/>
				<path fill="#334752" d="M154.587,153.787c0-6.36-5.116-11.514-11.426-11.514c-6.313,0-11.428,5.153-11.428,11.514
					c0,1.2,0.236,2.327,0.576,3.413c6.714,1.165,12.932,2.89,18.475,5.086C153.095,160.183,154.587,157.177,154.587,153.787z"/>
				<path fill="#FFFFFF" d="M152.148,147.453c1.191,1.668,1.354,3.598,0.368,4.313c-0.985,0.713-2.747-0.063-3.938-1.727
					c-1.188-1.67-1.354-3.602-0.369-4.313C149.197,145.011,150.958,145.785,152.148,147.453z"/>
				<g>
					<g>
						<path fill="#1B1B1B" d="M160.903,117.272h-14.054h-30.752h-14.053c-6.968,0.007-12.648,5.728-12.651,12.746v14.168v8.678
							c0.001,4.274,1.029,8.309,2.809,11.908c2.599,5.262,6.853,9.551,12.078,12.173c3.57,1.788,7.576,2.827,11.818,2.829h30.752
							c4.244-0.002,8.248-1.041,11.82-2.829c5.224-2.622,9.476-6.906,12.078-12.168c1.779-3.6,2.808-7.637,2.808-11.913v-8.678
							v-14.168C173.554,123,167.873,117.279,160.903,117.272z M170.746,132.271v11.916v8.678
							c-0.025,13.233-10.761,24.053-23.897,24.081h-30.752c-13.134-0.028-23.871-10.848-23.896-24.081v-8.678v-11.911v-2.257
							c0.014-5.439,4.439-9.901,9.842-9.915h2.239h11.814h30.752h11.82h2.234c5.403,0.014,9.835,4.476,9.843,9.915L170.746,132.271
							L170.746,132.271z"/>
					</g>
				</g>
				<rect x="171.976" y="131.085" fill="#1B1B1B" width="16.519" height="2.833"/>
				<path fill="none" d="M170.746,144.187v-11.916v-2.252c-0.008-5.439-4.44-9.901-9.843-9.915h-2.234h-11.82h-30.752h-11.814
					h-2.239c-5.403,0.014-9.829,4.476-9.842,9.915v2.257v11.911v5.487c8.152-1.144,16.95-1.77,26.127-1.77
					c20.179,0,38.523,3.021,52.207,7.952c0.124-0.984,0.208-1.979,0.211-2.992L170.746,144.187L170.746,144.187z"/>
				<path opacity="0.2" fill="#FFFFFF" enable-background="new    " d="M92.201,149.674v3.19
					c0.024,13.233,10.761,24.053,23.896,24.081h30.752c12.128-0.025,22.189-9.257,23.686-21.089
					c-13.683-4.931-32.028-7.952-52.207-7.952C109.151,147.904,100.354,148.53,92.201,149.674z"/>
				<path fill="#FFFFFF" d="M201.165,165.984c-3.797-4.893-5.22-12.677-3.892-19.143c2.349-11.438,12.65-13.81,23.545-12.747
					c10.24,1,17.043,8.048,17.043,18.413c0,1.175-0.25,2.308-0.655,3.408C223.143,157.137,210.615,160.769,201.165,165.984z"/>
				<path fill="#10CAB7" d="M207.441,162.941c-2.873-2.557-4.721-6.264-4.721-10.434c0-7.724,6.213-13.986,13.879-13.986
					c7.668,0,13.881,6.263,13.881,13.986c0,1.513-0.299,2.94-0.735,4.305C221.514,158.075,213.962,160.181,207.441,162.941z"/>
				<path fill="#334752" d="M220.818,134.095c4.402,0.43,8.113,2.031,10.976,4.481c-8.578,1.93-19.017,3.073-30.303,3.073
					c-0.763,0-1.505-0.024-2.261-0.032C203.291,134.688,211.852,133.22,220.818,134.095z"/>
				<path fill="#334752" d="M205.35,153.787c0-6.36,5.118-11.514,11.428-11.514c6.312,0,11.428,5.153,11.428,11.514
					c0,1.2-0.236,2.327-0.576,3.413c-6.713,1.165-12.932,2.89-18.477,5.086C206.841,160.183,205.35,157.177,205.35,153.787z"/>
				<path fill="#FFFFFF" d="M206.923,149.326c1-1.789,2.669-2.749,3.728-2.147c1.057,0.602,1.1,2.536,0.1,4.327
					c-1.002,1.788-2.672,2.75-3.729,2.148C205.963,153.053,205.919,151.117,206.923,149.326z"/>
				<g>
					<g>
						<path fill="#1B1B1B" d="M186.382,130.019v14.168v8.678c0,4.276,1.031,8.313,2.81,11.913
							c2.602,5.262,6.854,9.546,12.078,12.168c3.571,1.788,7.574,2.827,11.819,2.829h30.75c4.245-0.002,8.248-1.041,11.819-2.829
							c5.224-2.622,9.479-6.911,12.078-12.173c1.777-3.6,2.806-7.634,2.808-11.908v-8.678v-14.168
							c-0.004-7.019-5.683-12.739-12.647-12.746h-14.058h-30.75h-14.055C192.063,117.279,186.382,123,186.382,130.019z
							 M189.189,130.019c0.01-5.439,4.439-9.901,9.845-9.915h2.233h11.82h30.75h11.818h2.238c5.399,0.014,9.828,4.476,9.842,9.915
							v2.257v11.911v8.678c-0.025,13.233-10.764,24.053-23.898,24.081h-30.75c-13.137-0.028-23.873-10.848-23.898-24.081v-8.678
							v-11.916V130.019z"/>
					</g>
				</g>
				<path fill="none" d="M189.189,144.187v-11.916v-2.252c0.01-5.439,4.439-9.901,9.845-9.915h2.233h11.82h30.75h11.818h2.238
					c5.399,0.014,9.828,4.476,9.842,9.915v2.257v11.911v5.487c-8.154-1.144-16.951-1.77-26.129-1.77
					c-20.178,0-38.522,3.021-52.209,7.952c-0.123-0.984-0.205-1.979-0.209-2.992V144.187L189.189,144.187z"/>
				<path opacity="0.2" fill="#FFFFFF" enable-background="new    " d="M267.736,149.674v3.19
					c-0.024,13.233-10.762,24.053-23.897,24.081h-30.75c-12.129-0.025-22.188-9.257-23.688-21.089
					c13.687-4.931,32.031-7.952,52.209-7.952C250.786,147.904,259.583,148.53,267.736,149.674z"/>
			</g>
		</g>
	</g>
	<polygon fill="#C6E0E9" points="143.98,351.818 170.16,345.023 186.15,390 83.711,390 107.782,348.88 	"/>
	<g>
		<g>
			<path fill="#EBF8FD" d="M120.85,325.178c0.994-1.188,2.96-1.636,4.368-0.988l44.083,20.312c1.407,0.646,1.774,2.179,0.82,3.403
				l-31.902,40.873c-0.952,1.224-2.832,1.589-4.171,0.811l-42.689-24.79c-1.34-0.778-1.621-2.392-0.624-3.583L120.85,325.178z"/>
		</g>
	</g>
	<polygon fill="#C6E0E9" points="216.021,351.818 189.841,345.023 173.85,390 276.289,390 252.216,348.88 	"/>
	<g>
		<g>
			<path fill="#EBF8FD" d="M239.15,325.178c-0.993-1.188-2.961-1.636-4.367-0.988L190.7,344.5c-1.408,0.646-1.774,2.178-0.82,3.402
				l31.899,40.873c0.953,1.225,2.834,1.59,4.173,0.812l42.688-24.79c1.34-0.777,1.619-2.393,0.623-3.583L239.15,325.178z"/>
		</g>
	</g>
</g>
</svg>
