<?xml version="1.0" encoding="utf-8"?>
<!-- Generator: Adobe Illustrator 13.0.0, SVG Export Plug-In . SVG Version: 6.00 Build 14948)  -->
<!DOCTYPE svg PUBLIC "-//W3C//DTD SVG 1.1//EN" "http://www.w3.org/Graphics/SVG/1.1/DTD/svg11.dtd">
<svg version="1.1" id="Layer_1" xmlns="http://www.w3.org/2000/svg" xmlns:xlink="http://www.w3.org/1999/xlink" x="0px" y="0px"
	 width="40px" height="50.977px" viewBox="0 0 40 50.977" enable-background="new 0 0 40 50.977" xml:space="preserve">
<linearGradient id="SVGID_1_" gradientUnits="userSpaceOnUse" x1="19.9995" y1="0.6851" x2="19.9995" y2="50.0841">
	<stop  offset="0" style="stop-color:#CBFA14"/>
	<stop  offset="1" style="stop-color:#09D7CB"/>
</linearGradient>
<path fill="url(#SVGID_1_)" d="M39.275,39.048l-8.789-10.152c-0.438-0.502-0.978-0.852-1.555-1.093
	c-0.576-0.239-1.193-0.369-1.824-0.37c-0.321,0-0.644,0.036-0.966,0.115l-0.001,0.004c-0.602,0.125-1.052,0.657-1.052,1.297
	c0,0.207,0.048,0.401,0.132,0.576c0.215,0.441,0.667,0.748,1.192,0.748c0.099,0,0.196-0.013,0.289-0.033
	c0.037-0.009,0.075-0.019,0.111-0.029c0.084-0.018,0.184-0.029,0.294-0.029c0.251-0.002,0.551,0.059,0.808,0.167
	c0.259,0.104,0.465,0.258,0.569,0.381l8.773,10.135l-22.59,7.191l15.6-31.896c0.291-0.599,0.403-1.23,0.404-1.853
	c-0.009-1.02-0.289-2.044-0.977-2.889l-8.58-10.281C20.623,0.438,19.891,0,19.063,0c-0.501-0.002-0.998,0.171-1.393,0.455
	c-0.396,0.285-0.697,0.67-0.91,1.104L0.329,34.898l0,0C0.139,35.291,0.003,35.694,0,36.175c0,0.228,0.035,0.478,0.132,0.725
	c0.139,0.373,0.444,0.727,0.795,0.919c0.352,0.197,0.711,0.258,1.034,0.258c0.342-0.001,0.66-0.066,0.976-0.168l14.475-4.732
	c0.57-0.149,0.991-0.665,0.991-1.282c0-0.157-0.029-0.307-0.078-0.445c-0.183-0.514-0.673-0.882-1.249-0.882
	c-0.125,0-0.246,0.019-0.361,0.051l-0.094,0.032L3.217,35.031L19.115,2.773l8.547,10.244c0.181,0.196,0.369,0.718,0.36,1.19
	c0.002,0.286-0.061,0.543-0.134,0.688L11.8,47.791c-0.188,0.39-0.322,0.794-0.325,1.269c0,0.231,0.037,0.481,0.134,0.731
	c0.142,0.379,0.448,0.732,0.801,0.926c0.354,0.197,0.716,0.259,1.043,0.26c0.335-0.001,0.647-0.063,0.957-0.16l23.673-7.535
	c0.519-0.166,0.994-0.452,1.352-0.874c0.357-0.42,0.569-0.983,0.565-1.542C40,40.18,39.71,39.546,39.275,39.048z"/>
</svg>
