<?xml version="1.0" encoding="utf-8"?>
<!-- Generator: Adobe Illustrator 13.0.0, SVG Export Plug-In . SVG Version: 6.00 Build 14948)  -->
<!DOCTYPE svg PUBLIC "-//W3C//DTD SVG 1.1//EN" "http://www.w3.org/Graphics/SVG/1.1/DTD/svg11.dtd">
<svg version="1.1" id="Layer_1" xmlns="http://www.w3.org/2000/svg" xmlns:xlink="http://www.w3.org/1999/xlink" x="0px" y="0px"
	 width="500px" height="440px" viewBox="0 0 500 440" enable-background="new 0 0 500 440" xml:space="preserve">
<g>
	<path fill="#F9C9A5" d="M144.093,408.005c-4.473,11.306-16.641,17.104-27.18,12.952c-10.538-4.151-15.456-16.681-10.982-27.984
		c4.472-11.304,20.441-24.984,30.979-20.834C147.449,376.291,148.565,396.703,144.093,408.005z"/>
	<path fill="#F9D7C0" d="M105.931,392.973c-2.191,5.536-2.125,11.364-0.252,16.36c9.191-4.449,15.64-14.845,15.64-26.959
		c0-2.291-0.238-4.519-0.674-6.656C114.16,380.023,108.356,386.846,105.931,392.973z"/>
	<path fill="#F9C9A5" d="M368.791,410.005c4.473,11.305,16.643,17.104,27.181,12.951c10.538-4.15,15.456-16.68,10.981-27.983
		c-4.471-11.305-20.439-24.986-30.979-20.834C365.434,378.29,364.318,398.703,368.791,410.005z"/>
	<path fill="#F9D7C0" d="M406.953,394.973c2.19,5.536,2.125,11.364,0.253,16.36c-9.192-4.449-15.64-14.845-15.64-26.961
		c0-2.29,0.236-4.517,0.674-6.655C398.725,382.023,404.529,388.844,406.953,394.973z"/>
	<g>
		<ellipse fill="#C6E0E9" cx="287.205" cy="221.468" rx="7.852" ry="4.033"/>
		<ellipse fill="#C6E0E9" cx="212.7" cy="221.468" rx="7.851" ry="4.033"/>
		<path fill="#EFBB8F" d="M288.738,208.755c-9.805,2.273-21.723,3.611-34.59,3.611c-16.998,0-32.348-2.331-43.333-6.078
			c1.117,6.838,1.542,16.098-1.78,24.524c-3.784,9.602,11.321,22.142,23.79,30.523c1.138,3.357,2.069,6.1,2.66,7.835h28.934
			c0.59-1.735,1.521-4.478,2.66-7.835c12.469-8.383,27.572-20.923,23.789-30.523C287.932,223.363,287.93,215.263,288.738,208.755z"
			/>
		<g>
			<path fill="#EFBB8F" d="M307.494,35.899c0,16.572,57.451,159.798-52.668,159.798c-116.801,0-64.401-143.226-64.401-159.798
				c0-16.57,26.208-30.004,58.535-30.004S307.494,19.329,307.494,35.899z"/>
			<path fill="#D08F5E" d="M250.162,75.016c0,0-0.848,26.005,11.585,40.027c5.651,4.461,8.948,1.656,11.021,0.637
				s3.289,5.567,1.217,12.451c-2.069,6.883-10.549,8.328-14.19,7.395c-4.246-1.09,12.692,0.551,12.976-11.942
				c-0.095-5.481,1.153-6.331-4.183-4.291C260.669,122.317,248.184,105.993,250.162,75.016z"/>
			<path fill="#352E24" d="M292.768,13.219c-30.604-14.936-65.386-18.672-81.119-3.601c-2.652,2.54-15.148,1.508-25.472,31.886
				l-0.041,0.007c-1.114,4.239-3.242,7.423-3.242,12.714c0,5.078,0.91,11.399,1.024,15.989l3.29-7.126
				c-1.125-3.737,7.281-12.852,7.714-22.089c0.016-0.34,0.057-0.673,0.083-1.01l-0.023,0.005c0.25-1.697,0.464-3.42,0.577-5.193
				c-0.055-0.519-0.081-1.046-0.081-1.579c0-8.469,6.881-15.335,15.369-15.335c1.34,0,2.633,0.188,3.873,0.51
				c0.04,0.01,0.1,0.014,0.136,0.023c0.055,0.015,0.102,0.038,0.158,0.053c0.485,0.135,0.957,0.293,1.42,0.476
				c0.057,0.021,0.117,0.04,0.173,0.063c3,1.212,5.519,3.34,7.227,6.036c2.582,3.456,3.968,6.708,5.722,5.907
				c12.829-5.867,36.372-15.647,50.249-15.647c13.875,0,24.461,11.519,25.125,25.692c0.434,9.237,8.84,18.352,7.715,22.089
				l3.289,7.126c0.113-4.59,1.023-10.912,1.023-15.989C316.957,32.461,306.757,20.047,292.768,13.219z"/>
			<g>
				<path fill="#EFBB8F" d="M177.79,83.368c-3.532,8.318-4.004,22.252-11.571,19.052c-7.568-3.197-14.597-18.95-11.065-27.27
					c3.53-8.318,12.527-12.469,20.094-9.271C182.816,69.078,181.321,75.048,177.79,83.368z"/>
				<path fill="#D08F5E" d="M176.869,81.603c0.644,0.051,1.209-0.04,1.723-0.189c0.534-1.342,1-2.62,1.35-3.825
					c-0.832-1.014-2.125-2.588-4.154-5.06c-5.646-6.875-12.743,2.097-12.743,2.097s8.309-2.596,10.495,1.659
					c0,0-15.479-0.459-6.792,18.563C167.168,90.61,163.88,76.476,176.869,81.603z"/>
			</g>
			<g>
				<path fill="#EFBB8F" d="M322.114,86.925c3.532,8.318,4.004,22.252,11.57,19.053c7.567-3.197,14.599-18.951,11.064-27.27
					c-3.529-8.318-12.526-12.471-20.094-9.272C317.09,72.634,318.583,78.605,322.114,86.925z"/>
				<path fill="#D08F5E" d="M323.034,85.161c-0.644,0.051-1.208-0.041-1.722-0.19c-0.534-1.343-1-2.62-1.351-3.825
					c0.832-1.014,2.123-2.588,4.154-5.06c5.645-6.875,12.742,2.096,12.742,2.096s-8.31-2.596-10.496,1.66
					c0,0,15.479-0.459,6.793,18.564C332.735,94.167,336.024,80.032,323.034,85.161z"/>
			</g>
			<path fill="#352E24" d="M312.75,63.144c2.01,12.625,8.746,42.557,7.146,53.409c-0.017,0.103-0.024,0.205-0.048,0.308
				c-0.205,1.22-0.517,2.191-0.971,2.827c-0.598,0.838-1.521,1.698-2.713,2.568c-9.478,8.86-35.672,19.301-66.363,19.301
				c-0.271,0-0.539-0.009-0.813-0.01c-0.119,0.01-0.248,0.027-0.368,0.037c-0.128-0.013-0.263-0.033-0.39-0.047
				c-28.328-0.329-52.384-9.462-62.723-17.813c-2.085-1.279-3.658-2.546-4.531-3.77c-4.396-6.157,3.865-42.33,6.128-56.544
				c-16.116,23.284-23.145,60.581-23.145,84.547c0,20.536,9.328,37.973,24.621,50.034c12.239,9.653,28.297,15.866,46.475,17.443
				c2.331,0.202,4.598,0.364,6.805,0.492c6.9,0.185,14.495-0.026,22.936-0.759c18.6-1.615,34.975-8.084,47.315-18.124
				c14.792-12.033,23.78-29.198,23.78-49.352C335.896,123.724,328.867,86.428,312.75,63.144z"/>
			<g>
				<g>
					<path fill="#352E24" d="M196.995,62.754c-0.072-1.69,0.992-3.891,2.363-4.886l29.041-21.1c1.373-0.997,3.016-0.528,3.652,1.041
						l10.023,24.692c0.638,1.568-0.225,2.956-1.918,3.079l-39.83,2.916c-1.693,0.124-3.136-1.158-3.208-2.85L196.995,62.754z"/>
				</g>
				<g>
					<path fill="#352E24" d="M300.729,63.464c0.071-1.691-0.992-3.89-2.363-4.886l-29.041-21.099
						c-1.372-0.997-3.016-0.528-3.652,1.042L255.65,63.212c-0.64,1.569,0.225,2.955,1.918,3.079l39.83,2.915
						c1.691,0.123,3.135-1.16,3.207-2.851L300.729,63.464z"/>
				</g>
				<g>
					<path fill="#FFFFFF" d="M233.806,100.458c2.888-3.684,3.969-9.549,2.961-14.417c-1.787-8.614-9.622-10.401-17.908-9.601
						c-7.787,0.751-12.964,6.061-12.964,13.868c0,0.883,0.189,1.737,0.5,2.567C217.091,93.795,226.62,96.53,233.806,100.458z"/>
					<path fill="#10CAB7" d="M229.033,98.169c2.186-1.93,3.591-4.718,3.591-7.859c0-5.818-4.727-10.535-10.558-10.535
						s-10.558,4.717-10.558,10.535c0,1.138,0.228,2.213,0.563,3.241C218.331,94.501,224.075,96.087,229.033,98.169z"/>
					<path fill="#334752" d="M218.859,76.441c-3.348,0.323-6.17,1.531-8.349,3.375c6.526,1.455,14.464,2.314,23.049,2.314
						c0.579,0,1.143-0.02,1.717-0.027C232.19,76.888,225.681,75.783,218.859,76.441z"/>
					<path fill="#334752" d="M230.624,91.272c0-4.789-3.891-8.671-8.69-8.671c-4.8,0-8.691,3.882-8.691,8.671
						c0,0.902,0.18,1.753,0.437,2.568c5.108,0.879,9.836,2.18,14.052,3.833C229.49,96.089,230.624,93.824,230.624,91.272z"/>
					<path fill="#FFFFFF" d="M228.769,86.503c0.904,1.256,1.03,2.709,0.28,3.247c-0.75,0.537-2.088-0.045-2.995-1.302
						c-0.904-1.256-1.029-2.71-0.279-3.246C226.525,84.664,227.865,85.247,228.769,86.503z"/>
					<g>
						<g>
							<path fill="#1B1B1B" d="M235.429,63.773h-10.69h-23.388h-10.69c-5.298,0.004-9.617,4.313-9.621,9.6V84.04v6.537
								c0.001,3.22,0.783,6.259,2.134,8.969c1.979,3.964,5.213,7.193,9.187,9.167c2.716,1.349,5.762,2.128,8.99,2.13h23.388
								c3.228-0.002,6.273-0.782,8.991-2.13c3.972-1.974,7.206-5.201,9.185-9.164c1.354-2.712,2.136-5.751,2.136-8.973V84.04V73.373
								C245.05,68.085,240.729,63.777,235.429,63.773z M242.914,75.067v8.973v6.537c-0.02,9.968-8.185,18.117-18.175,18.137h-23.388
								c-9.991-0.02-18.156-8.169-18.177-18.137V84.04v-8.967v-1.7c0.012-4.099,3.378-7.458,7.486-7.47h1.703h8.988h23.388h8.991
								h1.699c4.109,0.013,7.479,3.371,7.485,7.47V75.067L242.914,75.067z"/>
						</g>
					</g>
					<rect x="243.85" y="74.174" fill="#1B1B1B" width="12.563" height="2.133"/>
					<path fill="none" d="M242.914,84.04v-8.973v-1.694c-0.006-4.099-3.376-7.458-7.485-7.47h-1.699h-8.991h-23.388h-8.988h-1.703
						c-4.108,0.013-7.475,3.371-7.486,7.47v1.7v8.967v4.134c6.202-0.862,12.894-1.333,19.872-1.333
						c15.348,0,29.301,2.277,39.708,5.99c0.094-0.741,0.158-1.49,0.16-2.254V84.04L242.914,84.04z"/>
					<path opacity="0.2" fill="#FFFFFF" enable-background="new    " d="M183.174,88.174v2.402
						c0.021,9.968,8.186,18.117,18.177,18.137h23.388c9.224-0.019,16.876-6.97,18.015-15.882c-10.407-3.713-24.36-5.99-39.708-5.99
						C196.068,86.841,189.376,87.312,183.174,88.174z"/>
					<path fill="#FFFFFF" d="M266.051,100.458c-2.888-3.684-3.969-9.549-2.96-14.417c1.785-8.614,9.621-10.401,17.907-9.601
						c7.787,0.751,12.963,6.061,12.963,13.868c0,0.883-0.188,1.737-0.499,2.567C282.766,93.795,273.236,96.53,266.051,100.458z"/>
					<path fill="#10CAB7" d="M270.823,98.169c-2.185-1.93-3.591-4.718-3.591-7.859c0-5.818,4.727-10.535,10.558-10.535
						s10.558,4.717,10.558,10.535c0,1.138-0.228,2.213-0.562,3.241C281.525,94.501,275.783,96.087,270.823,98.169z"/>
					<path fill="#334752" d="M280.998,76.441c3.348,0.323,6.17,1.531,8.348,3.375c-6.523,1.455-14.463,2.314-23.049,2.314
						c-0.579,0-1.143-0.02-1.717-0.027C267.667,76.888,274.176,75.783,280.998,76.441z"/>
					<path fill="#334752" d="M269.232,91.272c0-4.789,3.893-8.671,8.69-8.671c4.8,0,8.691,3.882,8.691,8.671
						c0,0.902-0.181,1.753-0.438,2.568c-5.107,0.879-9.836,2.18-14.051,3.833C270.367,96.089,269.232,93.824,269.232,91.272z"/>
					<path fill="#FFFFFF" d="M270.498,87.458c0.788-1.331,2.07-2.03,2.867-1.562c0.793,0.468,0.799,1.926,0.01,3.259
						c-0.788,1.331-2.072,2.031-2.865,1.562C269.715,90.249,269.711,88.791,270.498,87.458z"/>
					<g>
						<g>
							<path fill="#1B1B1B" d="M254.809,73.373V84.04v6.537c0,3.222,0.781,6.261,2.135,8.973c1.979,3.962,5.214,7.189,9.186,9.164
								c2.717,1.349,5.764,2.128,8.991,2.13h23.388c3.229-0.002,6.273-0.782,8.989-2.13c3.974-1.974,7.209-5.204,9.187-9.167
								c1.354-2.71,2.135-5.75,2.137-8.969V84.04V73.373c-0.005-5.288-4.323-9.596-9.621-9.6h-10.69h-23.388H264.43
								C259.129,63.777,254.809,68.085,254.809,73.373z M256.941,73.373c0.009-4.099,3.377-7.458,7.485-7.47h1.7h8.991h23.388h8.987
								h1.703c4.107,0.013,7.475,3.371,7.484,7.47v1.7v8.967v6.537c-0.02,9.968-8.185,18.117-18.176,18.137h-23.388
								c-9.991-0.02-18.156-8.169-18.178-18.137V84.04v-8.973v-1.694H256.941z"/>
						</g>
					</g>
					<path fill="none" d="M256.941,84.04v-8.973v-1.694c0.009-4.099,3.377-7.458,7.485-7.47h1.7h8.991h23.388h8.987h1.703
						c4.107,0.013,7.475,3.371,7.484,7.47v1.7v8.967v4.134c-6.202-0.862-12.893-1.333-19.872-1.333
						c-15.347,0-29.3,2.277-39.707,5.99c-0.094-0.741-0.158-1.49-0.16-2.254V84.04L256.941,84.04z"/>
					<path opacity="0.2" fill="#FFFFFF" enable-background="new    " d="M316.683,88.174v2.402
						c-0.02,9.968-8.185,18.117-18.176,18.137h-23.388c-9.225-0.019-16.876-6.97-18.016-15.882
						c10.406-3.713,24.359-5.99,39.707-5.99C303.79,86.841,310.48,87.312,316.683,88.174z"/>
				</g>
			</g>
		</g>
		<polygon fill="#C6E0E9" points="222.556,240.417 242.469,235.302 254.631,269.173 176.718,269.173 195.027,238.206 		"/>
		<g>
			<g>
				<path fill="#EBF8FD" d="M204.964,220.355c0.757-0.898,2.252-1.233,3.322-0.746l33.528,15.297
					c1.07,0.486,1.352,1.641,0.625,2.563l-24.263,30.783c-0.727,0.922-2.155,1.197-3.174,0.611l-32.468-18.672
					c-1.019-0.586-1.232-1.799-0.476-2.697L204.964,220.355z"/>
			</g>
		</g>
		<polygon fill="#C6E0E9" points="277.35,240.417 257.438,235.302 245.275,269.173 323.188,269.173 304.879,238.206 		"/>
		<g>
			<g>
				<path fill="#EBF8FD" d="M294.941,220.355c-0.758-0.898-2.252-1.233-3.322-0.746l-33.529,15.297
					c-1.07,0.486-1.35,1.641-0.623,2.563l24.262,30.783c0.728,0.922,2.155,1.197,3.174,0.611l32.47-18.672
					c1.019-0.586,1.231-1.799,0.475-2.697L294.941,220.355z"/>
			</g>
		</g>
	</g>
	<path fill="#C6E0E9" d="M448.152,412.089c-0.062-4.42-8.133-7.994-18.081-7.994c-9.952,0-18.021,3.574-18.083,7.994h-0.002v3.31
		h0.006c0.066,2.641,2.748,4.786,6.021,4.786h24.112c3.273,0,5.955-2.146,6.022-4.786h0.006v-3.31H448.152z"/>
	<g>
		<g>
			<path fill="#4D5168" d="M496.346,430.001c0,5.499-4.509,9.998-10.021,9.998H48.933c-5.512,0-10.021-4.499-10.021-9.998l0,0
				c0-5.5,4.509-9.999,10.021-9.999h437.393C491.837,420.002,496.346,424.501,496.346,430.001L496.346,430.001z"/>
		</g>
	</g>
	<g>
		<g>
			<path fill="#C6E0E9" d="M381.11,415.836c0,5.499-4.51,9.999-10.021,9.999H138.114c-5.511,0-10.02-4.5-10.02-9.999v-146.48
				c0-5.5,4.509-10,10.02-10H371.09c5.512,0,10.021,4.5,10.021,10L381.11,415.836L381.11,415.836z"/>
		</g>
	</g>
	<path fill="#EBF8FD" d="M133.434,323.88c13.988-37.188,49.925-60.692,91.454-64.524h-86.773c-5.511,0-10.02,4.5-10.02,10v76.893
		C128.929,338.708,130.675,331.214,133.434,323.88z"/>
	<path fill="#EBF8FD" d="M381.11,415.836v-75.396c-0.894,7.063-2.586,14.078-5.174,20.955
		c-13.897,36.948-49.463,60.381-90.649,64.44h85.803C376.602,425.835,381.11,421.335,381.11,415.836z"/>
	<path fill="#EBF8FD" d="M422.487,416.335c11.506,0,21.06-3.627,22.979-8.398c-3.181-2.302-8.877-3.842-15.396-3.842
		c-9.952,0-18.021,3.574-18.083,7.994h-0.002v3.159C415.144,415.942,418.709,416.335,422.487,416.335z"/>
</g>
</svg>
