<?xml version="1.0" encoding="utf-8"?>
<!-- Generator: Adobe Illustrator 13.0.0, SVG Export Plug-In . SVG Version: 6.00 Build 14948)  -->
<!DOCTYPE svg PUBLIC "-//W3C//DTD SVG 1.1//EN" "http://www.w3.org/Graphics/SVG/1.1/DTD/svg11.dtd">
<svg version="1.1" id="Layer_1" xmlns="http://www.w3.org/2000/svg" xmlns:xlink="http://www.w3.org/1999/xlink" x="0px" y="0px"
	 width="88.438px" height="106.303px" viewBox="0 0 88.438 106.303" enable-background="new 0 0 88.438 106.303"
	 xml:space="preserve">
<g>
	<g>
		<linearGradient id="SVGID_1_" gradientUnits="userSpaceOnUse" x1="19.5171" y1="32.3838" x2="69.256" y2="95.5358">
			<stop  offset="0" style="stop-color:#CBFA14"/>
			<stop  offset="1" style="stop-color:#09D7CB"/>
		</linearGradient>
		<rect x="19.409" y="32.468" fill="url(#SVGID_1_)" width="49.621" height="62.558"/>
		<g>
			<g>
				<path fill="#334752" d="M39.412,27.481c-0.785,0-1.426-0.641-1.426-1.424l0,0c0-0.783,0.641-1.425,1.426-1.425h9.615
					c0.783,0,1.424,0.642,1.424,1.425l0,0c0,0.784-0.641,1.424-1.424,1.424H39.412z"/>
			</g>
		</g>
		<path fill="#4D5168" d="M18.103,31.162v65.884h52.232v-1.425V31.162H18.103z M67.486,94.196H20.952V34.01h46.535V94.196z"/>
		<path fill="#4D5168" d="M87.014,103.454H49.383c-0.784,0-1.426,0.642-1.426,1.425c0,0.784,0.642,1.424,1.426,1.424h37.631
			c0.783,0,1.424-0.64,1.424-1.424C88.438,104.096,87.797,103.454,87.014,103.454z M87.014,94.196H76.567V23.565
			c-0.006-3.145-2.554-5.694-5.697-5.7H18.282c-3.146,0.005-5.694,2.555-5.7,5.7v70.631H1.424C0.641,94.196,0,94.837,0,95.62v0.002
			c0,0.783,0.641,1.424,1.424,1.424h85.589c0.783,0,1.424-0.641,1.424-1.424V95.62C88.438,94.837,87.797,94.196,87.014,94.196z
			 M73.717,94.196H15.431v-2.831c0-0.006,0.002-0.012,0.002-0.019V23.565c0.001-1.558,1.291-2.847,2.849-2.85H70.87
			c1.556,0.003,2.846,1.292,2.847,2.85V94.196z"/>
	</g>
	<g>
		<path fill="#FFFFFF" d="M63.984,59.897c0,0.549-0.451,1-1,1H25.216c-0.55,0-1-0.451-1-1V2.426c0-0.55,0.45-1,1-1h37.768
			c0.549,0,1,0.45,1,1V59.897z"/>
	</g>
	<path fill="#4D5168" d="M62.559,0H25.641c-1.577,0.007-2.844,1.273-2.849,2.851v56.623c0.005,1.574,1.272,2.84,2.849,2.848h36.917
		c1.578-0.008,2.846-1.273,2.85-2.848V2.851C65.404,1.273,64.137,0.007,62.559,0z M62.559,2.851v4.366H25.641V2.851H62.559z
		 M25.64,59.474l0.001-49.41h5.085v49.41H25.64z M33.576,59.474v-49.41h28.982v49.41H33.576z"/>
	<g>
		<g>
			<path fill="#F2F2F2" d="M37.229,20.292c-0.783,0-1.424-0.641-1.424-1.424l0,0c0-0.783,0.641-1.424,1.424-1.424h4.748
				c0.784,0,1.426,0.641,1.426,1.424l0,0c0,0.783-0.642,1.424-1.426,1.424H37.229z"/>
		</g>
	</g>
	<g>
		<g>
			<path fill="#F2F2F2" d="M37.229,51.558c-0.783,0-1.424-0.642-1.424-1.425v-0.001c0-0.783,0.641-1.425,1.424-1.425h0.662
				c0.783,0,1.424,0.642,1.424,1.425v0.001c0,0.783-0.641,1.425-1.424,1.425H37.229z"/>
		</g>
	</g>
	<g>
		<g>
			<path fill="#F2F2F2" d="M59.109,6.531c-0.783,0-1.426-0.642-1.426-1.425V5.105c0-0.783,0.643-1.424,1.426-1.424h0.661
				c0.784,0,1.424,0.641,1.424,1.424v0.001c0,0.784-0.64,1.425-1.424,1.425H59.109z"/>
		</g>
	</g>
	<g>
		<g>
			<path fill="#F2F2F2" d="M39.924,25.503c-0.784,0-1.424-0.642-1.424-1.424v-0.001c0-0.783,0.64-1.424,1.424-1.424h9.605
				c0.783,0,1.425,0.642,1.425,1.424v0.001c0,0.783-0.642,1.424-1.425,1.424H39.924z"/>
		</g>
	</g>
	<g>
		<g>
			<path fill="#F2F2F2" d="M39.924,46.346c-0.784,0-1.424-0.641-1.424-1.424l0,0c0-0.783,0.64-1.424,1.424-1.424h0.709
				c0.783,0,1.426,0.642,1.426,1.424l0,0c0,0.784-0.643,1.424-1.426,1.424H39.924z"/>
		</g>
	</g>
	<g>
		<g>
			<path fill="#F2F2F2" d="M42.952,41.136c-0.782,0-1.425-0.642-1.425-1.425l0,0c0-0.783,0.643-1.424,1.425-1.424h0.71
				c0.784,0,1.425,0.642,1.425,1.424l0,0c0,0.783-0.641,1.425-1.425,1.425H42.952z"/>
		</g>
	</g>
	<g>
		<g>
			<path fill="#F2F2F2" d="M42.952,30.713c-0.782,0-1.425-0.641-1.425-1.424v-0.001c0-0.784,0.643-1.424,1.425-1.424h10.519
				c0.783,0,1.424,0.641,1.424,1.424v0.001c0,0.784-0.641,1.424-1.424,1.424H42.952z"/>
		</g>
	</g>
	<g>
		<g>
			<path fill="#F2F2F2" d="M45.598,35.925c-0.784,0-1.426-0.642-1.426-1.424v-0.002c0-0.783,0.642-1.424,1.426-1.424h13.98
				c0.783,0,1.424,0.641,1.424,1.424v0.002c0,0.783-0.641,1.424-1.424,1.424H45.598z"/>
		</g>
	</g>
</g>
</svg>
