<?xml version="1.0" encoding="utf-8"?>
<!-- Generator: Adobe Illustrator 13.0.0, SVG Export Plug-In . SVG Version: 6.00 Build 14948)  -->
<!DOCTYPE svg PUBLIC "-//W3C//DTD SVG 1.1//EN" "http://www.w3.org/Graphics/SVG/1.1/DTD/svg11.dtd">
<svg version="1.1" id="Layer_1" xmlns="http://www.w3.org/2000/svg" xmlns:xlink="http://www.w3.org/1999/xlink" x="0px" y="0px"
	 width="88.438px" height="106.303px" viewBox="0 0 88.438 106.303" enable-background="new 0 0 88.438 106.303"
	 xml:space="preserve">
<g>
	<rect x="15.515" y="15.541" fill="#F2F2F2" width="61.407" height="48.288"/>
	<path fill="none" d="M77.086,63.147c0,0.75-0.609,1.358-1.356,1.358H16.709c-0.75,0-1.358-0.611-1.358-1.358v-45.63
		c0-0.744,0.609-1.357,1.358-1.357h59.022c0.749,0,1.356,0.612,1.356,1.357L77.086,63.147L77.086,63.147z"/>
	<g>
		<path fill="#4D5168" d="M16.709,65.858c-1.503-0.005-2.71-1.209-2.713-2.711l0,0v-45.63c0.005-1.503,1.213-2.707,2.713-2.713l0,0
			l59.021,0.001c1.502,0.005,2.711,1.21,2.714,2.712l0,0v45.63c-0.005,1.502-1.212,2.704-2.714,2.711l0,0H16.709L16.709,65.858z
			 M75.73,63.147v-45.63c0,0,0-0.001,0,0l0,0l-59.021-0.001v0.001v45.63H75.73L75.73,63.147z"/>
	</g>
	<g>
		<g>
			<path fill="#4D5168" d="M13.183,72.104c-0.75,0-1.359-0.613-1.359-1.357c0-0.745,0.609-1.354,1.359-1.354h66.073
				c0.749,0,1.357,0.613,1.357,1.354c0,0.749-0.61,1.357-1.357,1.357H13.183z"/>
		</g>
	</g>
	<path fill="#4D5168" d="M56.139,8.156h-8.566V2.008c0.002-0.745-0.609-1.356-1.353-1.356l0,0c-0.752,0-1.36,0.611-1.36,1.356v6.149
		h-8.567c-0.747,0-1.358,0.611-1.358,1.357l0,0c0,0.747,0.611,1.357,1.358,1.357h19.845c0.748,0,1.357-0.611,1.357-1.357l0,0
		C57.499,8.769,56.888,8.156,56.139,8.156z"/>
	<g>
		<g>
			<g>
				<path fill="#4D5168" d="M46.22,103.683c-0.752,0-1.36-0.612-1.36-1.356v-22.97c0-0.747,0.609-1.355,1.36-1.355l0,0
					c0.743,0,1.353,0.611,1.353,1.355v22.969C47.575,103.071,46.965,103.683,46.22,103.683L46.22,103.683z"/>
			</g>
		</g>
		<path fill="#4D5168" d="M69.998,101.451l-7.871-22.715c-0.248-0.704-1.023-1.083-1.731-0.837l0,0
			c-0.705,0.243-1.081,1.022-0.838,1.726l2.072,5.983h-6.223c-0.745,0-1.353,0.61-1.353,1.356s0.61,1.354,1.353,1.354h6.954
			c0.072,0,0.131-0.027,0.195-0.04l4.875,14.063c0.245,0.706,1.022,1.08,1.728,0.838h0.001
			C69.867,102.932,70.245,102.156,69.998,101.451z"/>
		<path fill="#4D5168" d="M37.027,85.606h-6.223l2.072-5.981c0.244-0.704-0.132-1.481-0.838-1.725v-0.001
			c-0.708-0.248-1.482,0.132-1.729,0.838l-7.872,22.713c-0.247,0.707,0.134,1.483,0.838,1.726l0,0
			c0.705,0.244,1.481-0.133,1.727-0.836l4.875-14.064c0.066,0.01,0.127,0.04,0.194,0.04h6.956c0.745,0,1.354-0.61,1.354-1.354
			C38.384,86.217,37.773,85.606,37.027,85.606z"/>
	</g>
	<path fill="#FFFFFF" d="M53.855,71.164h14.234V27.306H24.35v43.858h12.577l0.453,0.406l3.057,1.063c0,0,1.862,1.53,0.532,5.719
		c-1.33,4.189-4.057,11.165-1.464,14.757c2.593,3.589,9.439,6.714,13.827,0.4c1.064-3.658,0.331-6.78-0.798-10.372
		C51.478,79.779,50.017,73.055,53.855,71.164z"/>
	<path fill="#4D5168" d="M69.351,58.707V26.526H23.085v32.181l0,0v10.379c0.003,1.966,1.595,3.555,3.559,3.561h11.732
		c0.771,0.175,1.115,0.465,1.404,0.9c0.286,0.455,0.462,1.194,0.456,2.154c0.015,1.96-0.718,4.676-1.483,7.201
		c-0.755,2.559-1.562,4.834-1.59,6.572c0.002,4.983,4.039,9.033,9.022,9.045h0.064c4.984-0.012,9.022-4.059,9.022-9.045
		c-0.023-1.738-0.834-4.011-1.59-6.572c-0.765-2.527-1.498-5.246-1.483-7.201c-0.005-0.96,0.174-1.696,0.459-2.154
		c0.287-0.436,0.632-0.726,1.402-0.9h11.736c1.965-0.006,3.55-1.596,3.556-3.561V58.707L69.351,58.707z M25.459,28.899h41.522v9.195
		h-2.895c-3.495,0.041-6.034,3.268-6.038,6.951c0.001,1.328-0.438,2.521-1.084,3.336c-0.656,0.818-1.459,1.243-2.293,1.243
		c-0.816,0-1.619-0.427-2.281-1.272c-0.65-0.837-1.096-2.065-1.09-3.436c-0.015-3.634-2.088-6.978-5.396-7.082
		c-2.992,0.007-5.391,2.481-5.392,5.486c-0.002,1.642-1.485,3.113-3.414,3.115c-1.701-0.005-3.408-1.784-3.412-4.264
		c-0.006-3.494-2.368-6.589-5.69-6.635h-2.543L25.459,28.899L25.459,28.899z M25.459,37.906c0.724,0,1.6,0,2.543,0
		c0.834,0,1.625,0.407,2.264,1.171c0.63,0.762,1.053,1.861,1.053,3.092c0.004,3.511,2.427,6.597,5.78,6.636
		c3.13-0.004,5.77-2.399,5.784-5.487c0.004-1.726,1.388-3.11,3.021-3.116c0.684-0.001,1.396,0.388,2.006,1.235
		c0.601,0.837,1.021,2.084,1.016,3.474c0,3.69,2.323,7.009,5.744,7.08c3.4-0.062,5.742-3.317,5.747-6.95
		c0.008-2.658,1.826-4.576,3.67-4.578h2.895v18.244H25.459V37.906z M66.982,69.083c-0.004,0.647-0.543,1.19-1.188,1.19H53.826
		l-0.109,0.021c-1.354,0.243-2.455,0.979-3.074,2.002c-0.625,1.015-0.817,2.191-0.818,3.408c0.012,2.486,0.817,5.308,1.588,7.886
		c0.785,2.541,1.514,4.931,1.488,5.891c-0.01,3.672-2.967,6.643-6.635,6.67l-0.052-0.003l-0.044,0.003
		c-3.668-0.025-6.628-2.998-6.635-6.67c-0.023-0.961,0.71-3.348,1.489-5.891c0.77-2.578,1.578-5.399,1.59-7.886
		c-0.004-1.217-0.198-2.391-0.82-3.408c-0.62-1.02-1.719-1.759-3.074-2.001l-0.105-0.02H26.642
		c-0.644-0.003-1.182-0.544-1.187-1.193v-8.005h41.523v8.005H66.982z"/>
	<path fill="#F2F2F2" d="M25.459,61.08v8.003c0.002,0.647,0.54,1.19,1.188,1.19h11.97l0.105,0.021
		c1.355,0.243,2.452,0.979,3.074,2.002c0.623,1.015,0.817,2.191,0.82,3.407c-0.013,2.486-0.819,5.308-1.59,7.887
		c-0.78,2.538-1.515,4.93-1.488,5.889c0.007,3.674,2.967,6.645,6.634,6.672l0.043-0.005l0.052,0.005
		c3.667-0.025,6.625-2.998,6.635-6.672c0.024-0.956-0.708-3.348-1.488-5.889c-0.771-2.579-1.578-5.397-1.589-7.887
		c0.002-1.218,0.193-2.392,0.82-3.409c0.62-1.021,1.722-1.759,3.072-2.001l0.109-0.021h11.97c0.644-0.005,1.186-0.542,1.188-1.192
		v-8.005H25.46L25.459,61.08L25.459,61.08z"/>
	
		<linearGradient id="SVGID_1_" gradientUnits="userSpaceOnUse" x1="1380.8098" y1="2074.1174" x2="1421.9761" y2="2084.0698" gradientTransform="matrix(1 0 0 1 -1356 -2043)">
		<stop  offset="0" style="stop-color:#CBFA14"/>
		<stop  offset="1" style="stop-color:#09D7CB"/>
	</linearGradient>
	<path fill="url(#SVGID_1_)" d="M33.69,42.171c0.002,2.482,1.708,4.258,3.41,4.264c1.928-0.003,3.411-1.473,3.415-3.115
		c0.001-3.005,2.399-5.479,5.392-5.488c3.311,0.103,5.386,3.446,5.395,7.081c-0.003,1.372,0.439,2.599,1.093,3.437
		c0.661,0.845,1.464,1.271,2.281,1.271c0.836,0,1.637-0.424,2.293-1.243c0.646-0.815,1.085-2.007,1.082-3.336
		c0.006-3.685,2.547-6.91,6.04-6.951h2.894v-9.195H25.459v6.637h2.543C31.322,35.582,33.682,38.677,33.69,42.171z"/>
</g>
</svg>
