<?xml version="1.0" encoding="utf-8"?>
<!-- Generator: Adobe Illustrator 13.0.0, SVG Export Plug-In . SVG Version: 6.00 Build 14948)  -->
<!DOCTYPE svg PUBLIC "-//W3C//DTD SVG 1.1//EN" "http://www.w3.org/Graphics/SVG/1.1/DTD/svg11.dtd">
<svg version="1.1" id="Layer_1" xmlns="http://www.w3.org/2000/svg" xmlns:xlink="http://www.w3.org/1999/xlink" x="0px" y="0px"
	 width="88.438px" height="106.303px" viewBox="0 0 88.438 106.303" enable-background="new 0 0 88.438 106.303"
	 xml:space="preserve">
<g>
	
		<linearGradient id="SVGID_1_" gradientUnits="userSpaceOnUse" x1="226.4944" y1="-267.9231" x2="302.3062" y2="-315.5903" gradientTransform="matrix(1 0 0 -1 -221 -240.6968)">
		<stop  offset="0" style="stop-color:#CBFA14"/>
		<stop  offset="1" style="stop-color:#09D7CB"/>
	</linearGradient>
	<rect x="5.869" y="27.938" fill="url(#SVGID_1_)" width="76.029" height="46.854"/>
	<path d="M84.197,21.918H3.829c-2.157,0.004-3.9,1.748-3.906,3.903v51.411c0.005,2.154,1.749,3.9,3.906,3.902h29l-2.299,9.547
		h-6.854c-2.157,0.004-3.899,1.746-3.903,3.902v1.139c0.004,2.156,1.747,3.902,3.903,3.906h40.671
		c2.157-0.006,3.901-1.75,3.903-3.906v-1.139c-0.004-2.156-1.746-3.9-3.903-3.902h-6.853l-2.3-9.547h29.001
		c2.156-0.002,3.898-1.746,3.902-3.902V25.821C88.095,23.666,86.353,21.922,84.197,21.918z M58.122,93.284L58.122,93.284
		l6.226-0.002c0.707,0.004,1.301,0.594,1.302,1.301v1.139c-0.001,0.707-0.593,1.299-1.302,1.303H23.677
		c-0.706-0.004-1.3-0.594-1.301-1.303v-1.139c0.001-0.705,0.595-1.297,1.301-1.301h6.228v0.002H58.122z M33.209,90.677l2.298-9.541
		h17.011l2.3,9.541H33.209z M85.498,77.232c-0.001,0.707-0.594,1.301-1.302,1.303H54.571l-0.002-0.004H33.455v0.004H3.829
		c-0.708-0.002-1.301-0.594-1.302-1.303V25.821c0.001-0.707,0.594-1.3,1.302-1.302h80.367c0.708,0.002,1.301,0.594,1.302,1.302
		V77.232z M4.532,75.984H83.49V26.852H4.532V75.984z M7.137,29.455h73.751L80.89,73.38H7.137V29.455z"/>
	<g>
		<path fill="#FFFFFF" d="M75.143,72.148c0,1.432-1.17,2.604-2.603,2.604H15.484c-1.433,0-2.603-1.172-2.603-2.604V6.556
			c0-1.431,1.169-2.603,2.603-2.603H72.54c1.431,0,2.603,1.172,2.603,2.603V72.148z"/>
	</g>
	<g>
		<rect x="19.69" y="19.423" fill="#F2F2F2" width="48.646" height="17.732"/>
		<rect x="31.295" y="39.488" fill="#F2F2F2" width="25.434" height="10.575"/>
		<rect x="31.295" y="54.562" fill="#F2F2F2" width="25.434" height="16.541"/>
		<rect x="31.295" y="51.643" fill="#F2F2F2" width="25.434" height="1.246"/>
	</g>
	<path fill="#4D5168" d="M84.197,21.918h-7.752V6.555c-0.004-2.155-1.749-3.899-3.902-3.903l-57.059,0
		c-2.157,0.006-3.898,1.749-3.905,3.904v15.362H3.829c-2.157,0.004-3.9,1.749-3.906,3.903v51.411c0.005,2.154,1.749,3.9,3.906,3.902
		h29l-2.299,9.547h-6.854c-2.157,0.004-3.899,1.746-3.903,3.902v1.139c0.004,2.156,1.747,3.902,3.903,3.906h40.671
		c2.157-0.006,3.901-1.75,3.903-3.906v-1.139c-0.004-2.156-1.746-3.9-3.903-3.902h-6.853l-2.3-9.547h29.001
		c2.156-0.002,3.898-1.746,3.902-3.902V25.821C88.095,23.666,86.353,21.922,84.197,21.918z M11.578,73.38H7.137V29.455h4.441V73.38z
		 M76.445,29.455h4.443L80.89,73.38h-4.445V29.455z M14.182,6.555c0.001-0.706,0.593-1.299,1.301-1.301H72.54
		c0.706,0.002,1.301,0.595,1.303,1.301v6.519H14.182V6.555z M73.843,15.676V73.38H14.182V15.676H73.843z M58.122,93.284
		L58.122,93.284l6.226-0.002c0.707,0.004,1.301,0.594,1.302,1.301v1.139c-0.001,0.707-0.593,1.299-1.302,1.303H23.677
		c-0.706-0.004-1.3-0.594-1.301-1.303v-1.139c0.001-0.705,0.595-1.297,1.301-1.301h6.228v0.002H58.122z M33.209,90.677l2.298-9.541
		h17.011l2.3,9.541H33.209z M85.498,77.232c-0.001,0.707-0.594,1.301-1.302,1.303H54.571l-0.002-0.004H33.455v0.004H3.829
		c-0.708-0.002-1.301-0.594-1.302-1.303V25.821c0.001-0.707,0.594-1.3,1.302-1.302h7.749v2.333H4.532v49.13H83.49v-49.13h-7.046
		v-2.333h7.75c0.709,0.002,1.301,0.594,1.303,1.302L85.498,77.232L85.498,77.232z"/>
</g>
</svg>
