<?xml version="1.0" encoding="utf-8"?>
<!-- Generator: Adobe Illustrator 13.0.0, SVG Export Plug-In . SVG Version: 6.00 Build 14948)  -->
<!DOCTYPE svg PUBLIC "-//W3C//DTD SVG 1.1//EN" "http://www.w3.org/Graphics/SVG/1.1/DTD/svg11.dtd">
<svg version="1.1" id="Layer_1" xmlns="http://www.w3.org/2000/svg" xmlns:xlink="http://www.w3.org/1999/xlink" x="0px" y="0px"
	 width="72.285px" height="68.007px" viewBox="0 0 72.285 68.007" enable-background="new 0 0 72.285 68.007" xml:space="preserve">
<g>
	<g>
		<g>
			<g enable-background="new    ">
				<path fill="#4D5168" d="M3.029,20.022c-0.04,0.027-0.183,0.072-0.432,0.136c-0.201,0.059-0.303,0.091-0.307,0.095v-0.609
					c0.157-0.055,0.33-0.131,0.517-0.228s0.324-0.196,0.411-0.299h0.632v4.789H3.029V20.022z"/>
				<path fill="#4D5168" d="M5.32,23.667c-0.191-0.203-0.291-0.506-0.298-0.907v-0.071h0.786c0,0.229,0.028,0.393,0.086,0.49
					c0.057,0.099,0.168,0.148,0.334,0.148c0.153,0,0.261-0.074,0.322-0.222c0.061-0.148,0.091-0.403,0.091-0.766v-0.567
					c-0.055,0.094-0.14,0.167-0.254,0.219c-0.115,0.051-0.25,0.076-0.408,0.076c-0.67,0-1.005-0.469-1.005-1.407
					c0-0.5,0.1-0.892,0.298-1.173c0.199-0.282,0.515-0.423,0.949-0.423c0.425,0,0.741,0.139,0.946,0.417
					c0.205,0.277,0.307,0.653,0.307,1.126v1.696c0,0.521-0.093,0.929-0.281,1.225c-0.187,0.295-0.511,0.443-0.972,0.443
					C5.812,23.972,5.511,23.87,5.32,23.667z M6.641,21.187v-0.745c0-0.232-0.03-0.415-0.091-0.55c-0.062-0.134-0.171-0.2-0.328-0.2
					c-0.158,0-0.267,0.071-0.328,0.215c-0.062,0.145-0.092,0.354-0.092,0.63c0,0.217,0.007,0.386,0.021,0.506
					s0.051,0.218,0.112,0.293c0.061,0.074,0.159,0.112,0.293,0.112C6.405,21.447,6.542,21.36,6.641,21.187z"/>
				<path fill="#4D5168" d="M8.323,23.613c-0.176-0.242-0.263-0.602-0.263-1.079h0.798c0,0.272,0.03,0.478,0.089,0.615
					s0.175,0.207,0.349,0.207c0.13,0,0.227-0.042,0.29-0.127c0.063-0.085,0.103-0.199,0.121-0.343
					c0.018-0.145,0.026-0.344,0.026-0.601c0-0.315-0.029-0.548-0.088-0.697c-0.059-0.15-0.182-0.225-0.367-0.225
					c-0.11,0-0.204,0.037-0.281,0.112c-0.077,0.075-0.133,0.177-0.168,0.308H8.125l0.047-2.667h2.152v0.733H8.858l-0.047,1.152
					c0.067-0.074,0.164-0.135,0.29-0.18c0.126-0.046,0.264-0.068,0.414-0.068c0.339,0,0.59,0.129,0.754,0.388
					c0.164,0.258,0.246,0.621,0.246,1.091c0,0.366-0.035,0.676-0.104,0.928c-0.069,0.253-0.194,0.451-0.375,0.598
					c-0.182,0.146-0.438,0.219-0.769,0.219C8.813,23.978,8.499,23.856,8.323,23.613z"/>
				<path fill="#4D5168" d="M12.311,19.744h-1.295v-0.627h2.099v0.497l-0.97,4.292h-0.792L12.311,19.744z"/>
			</g>
		</g>
		<g>
			<g enable-background="new    ">
				<path fill="#4D5168" d="M53.229,23.327l1.183-1.827l0.112-0.172c0.134-0.212,0.233-0.391,0.298-0.534
					c0.066-0.145,0.098-0.307,0.098-0.488c0-0.37-0.129-0.556-0.39-0.556c-0.181,0-0.308,0.069-0.378,0.207
					c-0.071,0.138-0.107,0.323-0.107,0.556v0.201h-0.797v-0.213c0-0.449,0.1-0.801,0.301-1.056c0.201-0.254,0.521-0.381,0.958-0.381
					c0.401,0,0.706,0.108,0.913,0.325s0.311,0.524,0.311,0.922c0,0.186-0.025,0.356-0.076,0.515
					c-0.052,0.157-0.113,0.298-0.184,0.42c-0.071,0.122-0.182,0.295-0.332,0.52l-0.98,1.484h1.454v0.656h-2.383V23.327z"/>
				<path fill="#4D5168" d="M56.523,23.599c-0.213-0.252-0.32-0.589-0.32-1.011v-2.122c0-0.438,0.104-0.781,0.311-1.029
					s0.521-0.372,0.943-0.372c0.414,0,0.725,0.125,0.932,0.375c0.207,0.251,0.311,0.593,0.311,1.026v2.122
					c0,0.422-0.107,0.759-0.32,1.011c-0.213,0.253-0.52,0.379-0.922,0.379C57.046,23.978,56.736,23.852,56.523,23.599z
					 M57.871,22.576v-2.099c0-0.209-0.027-0.38-0.083-0.512s-0.165-0.198-0.331-0.198c-0.17,0-0.281,0.065-0.337,0.195
					s-0.083,0.302-0.083,0.515v2.099c0,0.465,0.141,0.697,0.42,0.697C57.732,23.273,57.871,23.041,57.871,22.576z"/>
				<path fill="#4D5168" d="M60.235,20.022c-0.04,0.027-0.183,0.072-0.432,0.136c-0.2,0.059-0.304,0.091-0.308,0.095v-0.609
					c0.158-0.055,0.33-0.131,0.518-0.228s0.324-0.196,0.411-0.299h0.632v4.789h-0.821V20.022z"/>
				<path fill="#4D5168" d="M63.499,19.744h-1.295v-0.627h2.099v0.497l-0.969,4.292h-0.793L63.499,19.744z"/>
			</g>
		</g>
		<g>
			<g enable-background="new    ">
				<path fill="#4D5168" d="M0.804,49.73h2.635c1.001,0,1.771,0.201,2.312,0.605c0.54,0.404,0.81,1.094,0.81,2.068
					c0,1.344-0.514,2.096-1.542,2.252c1.229,0.238,1.844,1.117,1.844,2.635c0.009,1.02-0.237,1.793-0.737,2.32
					C5.625,60.136,4.878,60.4,3.886,60.4H0.804V49.73z M3.412,54.089c0.562,0,0.946-0.125,1.152-0.375
					c0.207-0.25,0.31-0.656,0.31-1.219c0-0.543-0.134-0.914-0.402-1.113c-0.268-0.197-0.714-0.295-1.337-0.295H2.74v3.002H3.412z
					 M3.491,59.031c0.571,0,0.966-0.137,1.186-0.408c0.219-0.273,0.329-0.721,0.329-1.344c0-0.641-0.121-1.109-0.362-1.404
					c-0.242-0.293-0.647-0.441-1.218-0.441H2.74v3.598H3.491z"/>
				<path fill="#4D5168" d="M14.715,49.73h2.082l2.134,10.67h-1.805l-0.422-2.463h-1.857L14.412,60.4h-1.831L14.715,49.73z
					 M16.494,56.699l-0.725-4.479l-0.725,4.479H16.494z"/>
				<path fill="#4D5168" d="M24.99,49.73h1.937v4.689l2.121-4.689h1.857l-2.042,4.756l2.252,5.914h-1.937l-1.778-4.848l-0.474,0.805
					V60.4H24.99V49.73z"/>
				<path fill="#4D5168" d="M36.992,49.73h4.479v1.369h-2.542v3.07h2.003v1.357h-2.003v3.543h2.569v1.33h-4.506V49.73z"/>
				<path fill="#4D5168" d="M47.623,49.73h2.568c1.125,0,1.963,0.213,2.517,0.639s0.83,1.156,0.83,2.193
					c0,0.676-0.099,1.227-0.296,1.654c-0.198,0.426-0.539,0.734-1.021,0.928l1.488,5.256h-1.949l-1.278-4.887h-0.922V60.4h-1.937
					V49.73z M50.178,54.3c0.554,0,0.946-0.127,1.179-0.381c0.232-0.256,0.35-0.672,0.35-1.252c0-0.563-0.104-0.971-0.311-1.225
					c-0.205-0.256-0.576-0.383-1.112-0.383h-0.725v3.24H50.178z"/>
				<path fill="#4D5168" d="M61.468,56.33l-2.16-6.6h1.817l1.317,4.229l1.238-4.229h1.778l-2.134,6.6v4.07h-1.857V56.33z"/>
			</g>
		</g>
		<g enable-background="new    ">
			<path fill="#4D5168" d="M17.602,64.042h1.166v0.355h-0.651v0.826h0.532v0.361h-0.532v1.291h-0.515V64.042z"/>
			<path fill="#4D5168" d="M20.044,64.042h0.683c0.298,0,0.521,0.055,0.668,0.168s0.221,0.309,0.221,0.584
				c0,0.18-0.026,0.326-0.079,0.439c-0.053,0.113-0.143,0.195-0.271,0.246l0.396,1.396h-0.518l-0.339-1.299h-0.245v1.299h-0.515
				V64.042z M20.723,65.255c0.147,0,0.251-0.033,0.313-0.102c0.062-0.066,0.093-0.178,0.093-0.332c0-0.148-0.027-0.258-0.083-0.326
				c-0.055-0.066-0.153-0.102-0.295-0.102h-0.192v0.861H20.723z"/>
			<path fill="#4D5168" d="M23.005,64.042h1.19v0.363H23.52v0.814h0.532v0.361H23.52v0.941h0.682v0.354h-1.197V64.042z"/>
			<path fill="#4D5168" d="M25.638,66.697c-0.127-0.145-0.196-0.359-0.208-0.646l0.444-0.088c0.007,0.18,0.036,0.316,0.086,0.412
				c0.05,0.094,0.128,0.141,0.236,0.141c0.08,0,0.138-0.023,0.177-0.072c0.039-0.047,0.058-0.111,0.058-0.193
				c0-0.111-0.025-0.207-0.075-0.283c-0.05-0.076-0.129-0.164-0.236-0.26l-0.357-0.311c-0.11-0.098-0.192-0.199-0.247-0.303
				c-0.055-0.104-0.082-0.232-0.082-0.383c0-0.225,0.065-0.396,0.196-0.518c0.131-0.123,0.312-0.184,0.542-0.184
				c0.243,0,0.417,0.07,0.521,0.209s0.166,0.326,0.182,0.563l-0.445,0.076c-0.007-0.152-0.027-0.268-0.061-0.346
				c-0.034-0.08-0.1-0.119-0.198-0.119c-0.079,0-0.142,0.023-0.187,0.072s-0.068,0.113-0.068,0.193c0,0.09,0.019,0.166,0.056,0.227
				c0.037,0.061,0.095,0.127,0.175,0.199l0.354,0.313c0.133,0.119,0.237,0.242,0.312,0.371c0.074,0.129,0.112,0.279,0.112,0.451
				c0,0.135-0.03,0.256-0.089,0.359c-0.06,0.105-0.143,0.188-0.25,0.248c-0.107,0.059-0.231,0.088-0.371,0.088
				C25.958,66.914,25.766,66.841,25.638,66.697z"/>
			<path fill="#4D5168" d="M28.232,64.042h0.515v1.182h0.577v-1.182h0.518v2.834h-0.518v-1.281h-0.577v1.281h-0.515V64.042z"/>
			<path fill="#4D5168" d="M33.121,64.042h0.7c0.266,0,0.471,0.053,0.614,0.16s0.215,0.291,0.215,0.549
				c0,0.357-0.137,0.557-0.41,0.6c0.327,0.063,0.49,0.295,0.49,0.699c0.002,0.27-0.063,0.477-0.196,0.615
				c-0.133,0.141-0.331,0.211-0.595,0.211h-0.819V64.042z M33.814,65.201c0.149,0,0.251-0.033,0.306-0.102
				c0.055-0.066,0.083-0.174,0.083-0.322c0-0.145-0.036-0.244-0.107-0.297s-0.189-0.078-0.355-0.078h-0.105v0.799H33.814z
				 M33.835,66.511c0.152,0,0.257-0.035,0.315-0.107s0.087-0.191,0.087-0.357c0-0.17-0.032-0.295-0.096-0.373
				c-0.064-0.078-0.172-0.117-0.324-0.117h-0.182v0.955H33.835z"/>
			<path fill="#4D5168" d="M36.068,64.042h0.683c0.298,0,0.521,0.055,0.668,0.168s0.221,0.309,0.221,0.584
				c0,0.18-0.026,0.326-0.079,0.439s-0.143,0.195-0.271,0.246l0.396,1.396h-0.519l-0.339-1.299h-0.245v1.299h-0.515V64.042z
				 M36.747,65.255c0.147,0,0.251-0.033,0.313-0.102c0.062-0.066,0.093-0.178,0.093-0.332c0-0.148-0.027-0.258-0.083-0.326
				c-0.055-0.066-0.152-0.102-0.295-0.102h-0.192v0.861H36.747z"/>
			<path fill="#4D5168" d="M39.028,64.042h1.19v0.363h-0.676v0.814h0.531v0.361h-0.531v0.941h0.682v0.354h-1.196V64.042z"/>
			<path fill="#4D5168" d="M41.947,64.042H42.5l0.566,2.834h-0.479l-0.113-0.654h-0.492l-0.116,0.654h-0.486L41.947,64.042z
				 M42.419,65.892l-0.193-1.189l-0.192,1.189H42.419z"/>
			<path fill="#4D5168" d="M44.347,64.042h0.668c0.229,0,0.408,0.029,0.539,0.092s0.223,0.156,0.277,0.283
				c0.056,0.127,0.083,0.297,0.083,0.506v1.033c0,0.213-0.027,0.387-0.083,0.521c-0.055,0.133-0.146,0.232-0.273,0.299
				c-0.129,0.066-0.303,0.1-0.521,0.1h-0.689V64.042z M45.022,66.515c0.114,0,0.197-0.02,0.249-0.059
				c0.051-0.041,0.084-0.096,0.098-0.166c0.014-0.072,0.021-0.178,0.021-0.316v-1.086c0-0.125-0.009-0.221-0.025-0.287
				c-0.016-0.064-0.051-0.113-0.104-0.145c-0.052-0.031-0.135-0.047-0.246-0.047h-0.154v2.105H45.022z"/>
		</g>
		<path fill="#4D5168" d="M26.177,42.085c-0.025,0-0.048-0.004-0.069-0.006C26.13,42.082,26.153,42.085,26.177,42.085z
			 M43.07,43.014c0,0,0,0,0.002,0c-0.002,0-0.004,0-0.006,0H43.07z M42.517,21.373l0.102,1.243l-0.438-5.435l0.303,0.303
			l-0.258,0.257l0.101,1.214L54.123,7.153c0.521-0.521,0.521-1.363,0-1.885l-4.877-4.877c-0.521-0.521-1.363-0.521-1.885,0
			l-10.57,10.568l3.424,2.945l-2.526-2.527l3.103-3.102l5.451,5.452l-3.103,3.103l-1.15-1.15c0.009,0.016,0.017,0.032,0.021,0.049
			c-0.024-0.066-0.055-0.13-0.088-0.191c-0.01-0.023-0.02-0.046-0.028-0.068c-0.039-0.076-0.086-0.134-0.136-0.183
			c-0.213-0.213-0.661-0.624-1.036-0.944l-5.328-4.586c-0.28-0.239-0.628-0.348-0.97-0.35c-0.336,0.001-0.679,0.107-0.956,0.339
			l-5.471,4.6c-0.195,0.165-0.39,0.346-0.551,0.512c-0.081,0.083-0.153,0.162-0.217,0.236c-0.063,0.077-0.113,0.141-0.164,0.229
			c-0.026,0.047-0.046,0.104-0.06,0.163l0,0c-0.036,0.061-0.068,0.125-0.096,0.193l-1.151,1.15l-3.103-3.102l5.452-5.452
			l3.102,3.101l-1.675,1.677l2.532-2.131L21.536,0.391c-0.522-0.521-1.365-0.521-1.887,0l-4.878,4.877
			c-0.519,0.522-0.519,1.364,0,1.885l11.802,11.803l0.099-1.214l-0.258-0.257l0.303-0.303l-0.522,6.469l0.184-2.278L14.771,32.979
			c-0.519,0.521-0.519,1.363,0,1.886l4.878,4.877c0.521,0.521,1.364,0.521,1.887,0l3.654-3.654l-0.449,5.559
			c-0.004,0.035-0.004,0.07-0.004,0.105c-0.002,0.346,0.137,0.666,0.366,0.895c0.17,0.171,0.394,0.291,0.638,0.341
			c0.005,0.003,0.01,0.003,0.014,0.003c0.035,0.008,0.073,0.014,0.109,0.018c0.007,0,0.014,0,0.021,0.002
			c0.035,0.003,0.074,0.006,0.111,0.006c0.002,0,0.004,0,0.006,0h16.889c0.002,0,0.006,0,0.006,0c0.037,0,0.074-0.003,0.11-0.006
			c0.009-0.002,0.015-0.002,0.021-0.002c0.037-0.004,0.074-0.01,0.109-0.016c0.004-0.002,0.01-0.002,0.014-0.005
			c0.246-0.05,0.469-0.17,0.639-0.341c0.229-0.229,0.367-0.549,0.365-0.895c0-0.035,0-0.07-0.004-0.104l-0.498-6.188l0.049,0.631
			l3.656,3.654c0.521,0.52,1.363,0.52,1.885,0l4.877-4.877c0.521-0.524,0.521-1.366,0-1.887L42.517,21.373z M48.017,1.046
			c0.078-0.078,0.18-0.117,0.287-0.117c0.105,0,0.207,0.039,0.285,0.117l4.879,4.878c0.078,0.078,0.117,0.18,0.117,0.287
			s-0.039,0.208-0.117,0.287l-2.814,2.815L45.203,3.86L48.017,1.046z M41.443,7.619l3.102-3.102l5.453,5.453l-3.102,3.102
			L41.443,7.619z M15.427,6.498c-0.079-0.079-0.117-0.18-0.117-0.287s0.039-0.209,0.117-0.287l4.879-4.878
			c0.078-0.078,0.18-0.117,0.286-0.117c0.106,0,0.21,0.039,0.287,0.117l2.814,2.814l-5.452,5.453L15.427,6.498z M18.897,9.969
			l5.453-5.453l3.101,3.102l-5.45,5.452L18.897,9.969z M43.138,23.305l3.102,3.101l-3.068,3.069l-0.463-5.74L43.138,23.305z
			 M34.064,10.454c0.084-0.073,0.218-0.12,0.358-0.12c0.143,0,0.279,0.049,0.364,0.124l5.045,4.342H28.896L34.064,10.454z
			 M25.758,23.305l0.429,0.431l-0.463,5.74l-3.068-3.069L25.758,23.305z M20.879,39.085c-0.079,0.08-0.181,0.119-0.287,0.119
			c-0.106,0-0.208-0.039-0.286-0.119l-4.879-4.876c-0.079-0.08-0.117-0.181-0.117-0.287s0.039-0.209,0.117-0.287l2.814-2.814
			l5.452,5.451L20.879,39.085z M25.598,31.044l-0.292,3.618l-0.955,0.953l-5.453-5.451l3.104-3.102l3.625,3.626L25.598,31.044z
			 M36.882,42.085h-4.715V34.99c0.001-0.117,0.045-0.223,0.12-0.301c0.075-0.08,0.175-0.127,0.286-0.127h3.905
			c0.111,0,0.209,0.047,0.285,0.127c0.074,0.078,0.119,0.184,0.119,0.301V42.085L36.882,42.085z M43.136,41.99
			c-0.059,0.057-0.137,0.096-0.244,0.096H37.81V34.99c-0.002-0.777-0.598-1.405-1.332-1.407h-3.905
			c-0.736,0.002-1.332,0.63-1.333,1.407v7.096h-5.063h-0.174c-0.023,0-0.047-0.004-0.07-0.006c0,0-0.003-0.002-0.005-0.002
			c-0.069-0.014-0.124-0.045-0.169-0.088c-0.058-0.06-0.094-0.137-0.095-0.238c0-0.01,0.001-0.021,0.001-0.028l2.064-25.555
			c0.008-0.11,0.064-0.223,0.156-0.308c0.092-0.083,0.207-0.131,0.318-0.131h12.485c0.11-0.001,0.229,0.047,0.319,0.131
			c0.093,0.085,0.148,0.198,0.158,0.308l2.063,25.553c0,0.01,0,0.021,0,0.03C43.23,41.854,43.195,41.931,43.136,41.99z
			 M43.591,34.662l-0.293-3.619l-0.029-0.354l3.627-3.626l3.102,3.102l-5.453,5.452L43.591,34.662z M53.468,34.209l-4.877,4.876
			c-0.08,0.08-0.182,0.119-0.287,0.119c-0.107,0-0.209-0.039-0.287-0.119l-2.814-2.813l5.451-5.451l2.814,2.814
			c0.078,0.078,0.117,0.181,0.117,0.287S53.546,34.129,53.468,34.209z"/>
	</g>
</g>
</svg>
