<?xml version="1.0" encoding="utf-8"?>
<!-- Generator: Adobe Illustrator 13.0.0, SVG Export Plug-In . SVG Version: 6.00 Build 14948)  -->
<!DOCTYPE svg PUBLIC "-//W3C//DTD SVG 1.1//EN" "http://www.w3.org/Graphics/SVG/1.1/DTD/svg11.dtd">
<svg version="1.1" id="Layer_1" xmlns="http://www.w3.org/2000/svg" xmlns:xlink="http://www.w3.org/1999/xlink" x="0px" y="0px"
	 width="76.676px" height="67.006px" viewBox="0 0 76.676 67.006" enable-background="new 0 0 76.676 67.006" xml:space="preserve">
<g>
	<g>
		<g>
			<path fill="#4D5168" d="M13.444,10.59l0.479-0.451l2.173,2.313l0.643-0.604l0.31,0.329l-1.122,1.054L13.444,10.59z"/>
			<path fill="#4D5168" d="M19.379,9.986c-0.247-0.075-0.479-0.272-0.699-0.592l-0.77-1.122c-0.218-0.318-0.315-0.603-0.294-0.856
				c0.021-0.254,0.188-0.487,0.498-0.699c0.308-0.211,0.583-0.281,0.828-0.209s0.475,0.266,0.693,0.583l0.769,1.123
				c0.218,0.317,0.317,0.606,0.297,0.865S20.52,9.57,20.214,9.78C19.904,9.992,19.626,10.061,19.379,9.986z M20.104,9.096
				c-0.01-0.105-0.065-0.23-0.165-0.375l-0.944-1.377c-0.1-0.146-0.195-0.241-0.286-0.287c-0.091-0.046-0.199-0.026-0.322,0.058
				c-0.123,0.084-0.18,0.179-0.17,0.282c0.01,0.104,0.063,0.227,0.161,0.37l0.944,1.377c0.1,0.146,0.196,0.242,0.291,0.29
				c0.094,0.047,0.203,0.029,0.326-0.055C20.059,9.294,20.114,9.201,20.104,9.096z"/>
			<path fill="#4D5168" d="M23.882,7.298c-0.226-0.098-0.423-0.31-0.593-0.636l0.467-0.343c0.106,0.204,0.213,0.347,0.323,0.429
				c0.11,0.082,0.227,0.094,0.351,0.035c0.092-0.043,0.147-0.103,0.166-0.179s0.005-0.162-0.039-0.256
				c-0.061-0.129-0.142-0.225-0.241-0.287C24.214,6,24.076,5.942,23.899,5.89l-0.583-0.166c-0.18-0.054-0.331-0.125-0.451-0.216
				c-0.12-0.09-0.221-0.223-0.304-0.398c-0.122-0.259-0.14-0.495-0.055-0.706c0.085-0.212,0.261-0.38,0.528-0.506
				c0.281-0.132,0.52-0.146,0.717-0.043c0.197,0.104,0.37,0.287,0.517,0.551l-0.472,0.331c-0.091-0.171-0.177-0.294-0.26-0.367
				s-0.18-0.083-0.293-0.03c-0.092,0.043-0.151,0.105-0.177,0.187s-0.017,0.168,0.026,0.26c0.05,0.105,0.112,0.183,0.189,0.233
				c0.076,0.05,0.18,0.095,0.311,0.136l0.579,0.167c0.219,0.065,0.406,0.152,0.563,0.26c0.156,0.108,0.281,0.262,0.375,0.461
				c0.074,0.157,0.105,0.312,0.093,0.466s-0.063,0.294-0.155,0.422c-0.092,0.127-0.219,0.229-0.38,0.305
				C24.369,7.375,24.108,7.396,23.882,7.298z"/>
			<path fill="#4D5168" d="M31.944,1.131l0.698-0.113l1.297,3.462l-0.605,0.098l-0.275-0.803l-0.623,0.101l-0.011,0.85l-0.614,0.1
				L31.944,1.131z M32.92,3.372l-0.487-1.463l0.001,1.542L32.92,3.372z"/>
			<path fill="#4D5168" d="M36.931,0.635l0.461-0.007l0.915,2.053l-0.034-2.067l0.546-0.009l0.059,3.625l-0.439,0.007l-0.921-2.152
				l0.035,2.166L36.989,4.26L36.931,0.635z"/>
			<path fill="#4D5168" d="M42.314,4.259c-0.113-0.235-0.139-0.551-0.073-0.948l0.196-1.202c0.066-0.409,0.193-0.705,0.381-0.888
				c0.187-0.183,0.467-0.244,0.842-0.183c0.353,0.058,0.592,0.187,0.717,0.387c0.124,0.2,0.158,0.472,0.102,0.817l-0.03,0.186
				l-0.622-0.102l0.033-0.203c0.021-0.13,0.029-0.234,0.025-0.313c-0.004-0.079-0.027-0.144-0.072-0.193
				c-0.045-0.049-0.119-0.083-0.223-0.1c-0.108-0.018-0.193-0.004-0.256,0.04c-0.061,0.044-0.107,0.106-0.137,0.186
				c-0.029,0.08-0.055,0.186-0.076,0.318L42.876,3.56c-0.033,0.203-0.03,0.359,0.007,0.468c0.039,0.109,0.133,0.176,0.283,0.2
				c0.146,0.024,0.258-0.012,0.333-0.109c0.075-0.096,0.13-0.251,0.164-0.463l0.055-0.335l-0.384-0.063L43.4,2.847l0.972,0.159
				l-0.296,1.815l-0.424-0.069l0.012-0.356c-0.154,0.247-0.378,0.346-0.67,0.298C42.656,4.639,42.43,4.494,42.314,4.259z"/>
			<path fill="#4D5168" d="M48.313,2.165l1.445,0.477l-0.146,0.442l-0.821-0.271l-0.326,0.99l0.646,0.213l-0.145,0.438L48.32,4.241
				l-0.377,1.144l0.829,0.273l-0.142,0.429l-1.453-0.479L48.313,2.165z"/>
			<path fill="#4D5168" d="M53.061,4.019l0.588,0.294l-1.42,2.837l0.788,0.395L52.814,7.95L51.438,7.26L53.061,4.019z"/>
			<path fill="#4D5168" d="M57.508,6.553l1.246,0.873l-0.267,0.381l-0.708-0.495l-0.598,0.854l0.557,0.39l-0.264,0.378l-0.557-0.39
				L56.227,9.53l0.715,0.5l-0.259,0.37l-1.254-0.877L57.508,6.553z"/>
			<path fill="#4D5168" d="M59.327,12.287c0.009-0.246,0.136-0.507,0.378-0.784l0.488,0.311c-0.152,0.173-0.246,0.325-0.283,0.457
				c-0.036,0.132-0.005,0.245,0.095,0.34c0.073,0.07,0.149,0.1,0.228,0.089c0.077-0.01,0.152-0.053,0.225-0.129
				c0.098-0.104,0.158-0.213,0.18-0.329s0.023-0.265,0.009-0.448L60.59,11.19c-0.016-0.188-0.004-0.354,0.037-0.498
				s0.128-0.287,0.262-0.428c0.197-0.208,0.41-0.31,0.639-0.308c0.228,0.003,0.448,0.106,0.662,0.31
				c0.225,0.214,0.325,0.431,0.301,0.652c-0.025,0.221-0.135,0.448-0.326,0.681l-0.48-0.32c0.127-0.147,0.21-0.272,0.248-0.375
				c0.039-0.104,0.013-0.198-0.078-0.285c-0.073-0.07-0.152-0.102-0.238-0.097c-0.085,0.005-0.162,0.044-0.232,0.118
				c-0.08,0.084-0.13,0.171-0.148,0.26c-0.02,0.089-0.023,0.202-0.014,0.339l0.053,0.6c0.019,0.228,0.006,0.434-0.038,0.618
				c-0.044,0.185-0.142,0.357-0.294,0.517c-0.119,0.125-0.252,0.211-0.4,0.256c-0.147,0.045-0.297,0.047-0.449,0.008
				c-0.152-0.04-0.293-0.121-0.422-0.244C59.432,12.769,59.317,12.533,59.327,12.287z"/>
		</g>
	</g>
	<g>
		<g>
			<path fill="#4D5168" d="M1.427,20.101h5.302c3.074,0,4.611,1.708,4.611,5.124c0,3.267-1.611,4.901-4.834,4.901H4.702v8.02H1.427
				V20.101z M5.972,27.809c0.891,0,1.493-0.189,1.805-0.568c0.312-0.379,0.468-1.059,0.468-2.039c0-0.713-0.052-1.259-0.156-1.637
				c-0.104-0.379-0.315-0.665-0.635-0.858c-0.319-0.193-0.813-0.29-1.481-0.29h-1.27v5.391H5.972z"/>
			<path fill="#4D5168" d="M16.085,20.101h3.52l3.609,18.045h-3.052l-0.713-4.166h-3.141l-0.735,4.166h-3.097L16.085,20.101z
				 M19.092,31.885l-1.225-7.574l-1.225,7.574H19.092z"/>
			<path fill="#4D5168" d="M27.012,36.819c-0.78-1.047-1.169-2.528-1.169-4.444v-6.438c0-1.975,0.386-3.476,1.158-4.5
				c0.772-1.025,2.102-1.537,3.988-1.537c1.767,0,3.022,0.445,3.765,1.336s1.114,2.176,1.114,3.854v1.515h-3.163v-1.559
				c0-0.639-0.03-1.14-0.089-1.504c-0.06-0.364-0.211-0.661-0.457-0.891c-0.245-0.23-0.627-0.345-1.147-0.345
				c-0.535,0-0.936,0.123-1.203,0.368c-0.268,0.245-0.442,0.572-0.523,0.98c-0.082,0.409-0.123,0.939-0.123,1.593v7.819
				c0,1.025,0.133,1.763,0.401,2.216c0.267,0.453,0.75,0.68,1.448,0.68c0.505,0,0.88-0.119,1.125-0.356
				c0.245-0.237,0.401-0.554,0.468-0.946c0.067-0.395,0.101-0.917,0.101-1.571v-1.626h3.163v1.448c0,1.737-0.364,3.085-1.091,4.043
				c-0.728,0.958-1.99,1.437-3.787,1.437C29.117,38.39,27.792,37.866,27.012,36.819z"/>
			<path fill="#4D5168" d="M39.364,20.101h3.253v18.045h-3.253V20.101z"/>
			<path fill="#4D5168" d="M46.516,20.101h7.418v2.272H49.79v5.257h3.386v2.294H49.79v8.221h-3.274V20.101z"/>
			<path fill="#4D5168" d="M56.918,20.101h3.252v18.045h-3.252V20.101z"/>
			<path fill="#4D5168" d="M64.949,36.819c-0.78-1.047-1.17-2.528-1.17-4.444v-6.438c0-1.975,0.386-3.476,1.158-4.5
				c0.771-1.025,2.102-1.537,3.988-1.537c1.767,0,3.021,0.445,3.764,1.336c0.743,0.891,1.114,2.176,1.114,3.854v1.515h-3.163v-1.559
				c0-0.639-0.03-1.14-0.09-1.504c-0.059-0.364-0.211-0.661-0.456-0.891c-0.245-0.23-0.628-0.345-1.147-0.345
				c-0.535,0-0.936,0.123-1.203,0.368s-0.441,0.572-0.523,0.98c-0.082,0.409-0.122,0.939-0.122,1.593v7.819
				c0,1.025,0.134,1.763,0.401,2.216c0.267,0.453,0.749,0.68,1.447,0.68c0.505,0,0.881-0.119,1.125-0.356
				c0.245-0.237,0.401-0.554,0.468-0.946c0.067-0.395,0.101-0.917,0.101-1.571v-1.626h3.163v1.448c0,1.737-0.364,3.085-1.091,4.043
				c-0.729,0.958-1.99,1.437-3.787,1.437C67.054,38.39,65.729,37.866,64.949,36.819z"/>
		</g>
	</g>
	<g>
		<g>
			<path fill="#4D5168" d="M3.617,52.439c-0.163-0.185-0.251-0.462-0.266-0.828l0.568-0.112c0.009,0.23,0.045,0.405,0.109,0.526
				c0.064,0.12,0.165,0.181,0.302,0.181c0.102,0,0.177-0.03,0.226-0.092c0.049-0.061,0.074-0.144,0.074-0.248
				c0-0.143-0.032-0.264-0.096-0.362c-0.064-0.099-0.165-0.209-0.302-0.331l-0.456-0.398c-0.141-0.125-0.246-0.254-0.316-0.387
				c-0.07-0.133-0.105-0.297-0.105-0.49c0-0.287,0.083-0.508,0.25-0.662c0.167-0.156,0.398-0.233,0.694-0.233
				c0.31,0,0.533,0.089,0.667,0.267s0.212,0.416,0.232,0.719L4.63,50.085c-0.009-0.193-0.035-0.342-0.078-0.443
				c-0.043-0.102-0.127-0.152-0.253-0.152c-0.102,0-0.181,0.031-0.239,0.095c-0.059,0.063-0.087,0.145-0.087,0.246
				c0,0.116,0.024,0.214,0.072,0.291c0.047,0.077,0.122,0.163,0.224,0.255l0.452,0.398c0.17,0.152,0.303,0.311,0.398,0.475
				c0.096,0.164,0.144,0.356,0.144,0.577c0,0.173-0.038,0.327-0.114,0.461s-0.183,0.239-0.32,0.315
				c-0.138,0.076-0.295,0.114-0.475,0.114C4.025,52.717,3.779,52.624,3.617,52.439z"/>
			<path fill="#4D5168" d="M8.354,49.042h0.653v3.625H8.354V49.042z"/>
			<path fill="#4D5168" d="M12.252,49.042h0.461l0.882,2.068v-2.068h0.546v3.625h-0.438l-0.886-2.166v2.166h-0.564V49.042z"/>
			<path fill="#4D5168" d="M17.554,52.401c-0.157-0.211-0.235-0.508-0.235-0.893v-1.294c0-0.397,0.078-0.698,0.233-0.903
				c0.155-0.207,0.422-0.31,0.801-0.31c0.355,0,0.607,0.089,0.756,0.269c0.149,0.18,0.224,0.438,0.224,0.774v0.304h-0.636v-0.313
				c0-0.129-0.006-0.229-0.018-0.303c-0.012-0.072-0.042-0.133-0.091-0.179c-0.049-0.046-0.126-0.069-0.231-0.069
				c-0.107,0-0.188,0.024-0.241,0.074c-0.054,0.049-0.089,0.115-0.105,0.197s-0.024,0.188-0.024,0.319v1.571
				c0,0.205,0.027,0.354,0.081,0.445c0.054,0.091,0.15,0.137,0.291,0.137c0.102,0,0.177-0.024,0.226-0.072
				c0.049-0.048,0.081-0.111,0.094-0.189c0.013-0.08,0.02-0.186,0.02-0.316v-0.326h0.636v0.291c0,0.349-0.073,0.619-0.219,0.813
				c-0.146,0.191-0.4,0.288-0.761,0.288C17.977,52.717,17.71,52.611,17.554,52.401z"/>
			<path fill="#4D5168" d="M22.479,49.042h1.522v0.466h-0.864v1.043h0.68v0.461h-0.68v1.204h0.873v0.451h-1.531V49.042z"/>
		</g>
	</g>
	<g>
		<g>
			<path fill="#4D5168" d="M53.654,49.728c-0.029,0.021-0.139,0.055-0.326,0.103c-0.152,0.044-0.23,0.068-0.232,0.071V49.44
				c0.119-0.041,0.249-0.1,0.391-0.172c0.143-0.073,0.246-0.148,0.312-0.227h0.479v3.625h-0.623V49.728z"/>
			<path fill="#4D5168" d="M57.803,51.634c0-0.424,0.145-0.717,0.435-0.877c-0.116-0.081-0.209-0.189-0.277-0.324
				c-0.069-0.137-0.103-0.303-0.103-0.5c0-0.292,0.076-0.521,0.228-0.685c0.152-0.164,0.373-0.246,0.663-0.246
				c0.292,0,0.513,0.082,0.662,0.246c0.148,0.164,0.224,0.393,0.224,0.685c0,0.379-0.126,0.654-0.376,0.824
				c0.289,0.164,0.434,0.461,0.434,0.891c0,0.713-0.314,1.069-0.943,1.069C58.118,52.717,57.803,52.356,57.803,51.634z
				 M59.021,52.075c0.045-0.115,0.067-0.268,0.067-0.455c0-0.173-0.025-0.313-0.074-0.418c-0.049-0.106-0.138-0.16-0.266-0.164
				c-0.129,0.004-0.219,0.061-0.27,0.172c-0.051,0.113-0.076,0.26-0.076,0.441c0,0.176,0.024,0.319,0.072,0.43
				s0.139,0.166,0.273,0.166C58.885,52.247,58.976,52.189,59.021,52.075z M59.043,49.938c0-0.144-0.023-0.257-0.072-0.341
				c-0.047-0.083-0.121-0.125-0.223-0.125s-0.178,0.042-0.229,0.125c-0.051,0.084-0.076,0.195-0.076,0.336
				c0,0.385,0.102,0.579,0.305,0.582C58.944,50.512,59.043,50.319,59.043,49.938z"/>
			<path fill="#4D5168" d="M63.76,49.517H62.78v-0.475h1.589v0.377l-0.734,3.248h-0.6L63.76,49.517z"/>
			<path fill="#4D5168" d="M67.724,52.39c-0.157-0.217-0.235-0.506-0.235-0.863v-1.271c0-0.391,0.071-0.697,0.213-0.92
				c0.142-0.222,0.387-0.333,0.736-0.333c0.307,0,0.533,0.076,0.678,0.229c0.145,0.151,0.221,0.379,0.227,0.681l0.004,0.058H68.75
				c0-0.173-0.02-0.297-0.063-0.372c-0.041-0.074-0.123-0.111-0.246-0.111c-0.119,0-0.203,0.057-0.252,0.168
				c-0.05,0.111-0.074,0.305-0.074,0.58v0.43c0.041-0.069,0.106-0.123,0.195-0.164c0.088-0.04,0.191-0.061,0.311-0.061
				c0.51,0,0.766,0.348,0.766,1.043c0,0.385-0.075,0.688-0.225,0.906c-0.148,0.219-0.391,0.329-0.725,0.329
				C68.118,52.717,67.881,52.608,67.724,52.39z M68.695,52.077c0.046-0.107,0.068-0.268,0.068-0.479c0-0.161-0.006-0.288-0.018-0.38
				c-0.012-0.093-0.041-0.168-0.087-0.225s-0.118-0.084-0.218-0.084c-0.071,0-0.137,0.02-0.194,0.058s-0.103,0.083-0.132,0.134
				v0.568c0,0.379,0.109,0.568,0.326,0.568C68.564,52.237,68.648,52.185,68.695,52.077z"/>
		</g>
	</g>
	<g>
		<g>
			<path fill="#4D5168" d="M37.814,58.437L37.814,58.437L37.814,58.437c-0.39,0-0.705-0.316-0.705-0.703v-1.204
				c-0.884-0.136-1.723-0.483-2.445-1.013l-0.851,0.851c-0.133,0.132-0.31,0.206-0.499,0.206c-0.186,0-0.367-0.076-0.498-0.206
				l-0.207-0.208c-0.133-0.132-0.207-0.313-0.206-0.498c-0.001-0.186,0.074-0.367,0.206-0.499l0.85-0.851
				c-0.529-0.723-0.877-1.563-1.013-2.446h-1.202c-0.389,0-0.705-0.315-0.705-0.702l-0.001-0.295
				c0.001-0.389,0.318-0.705,0.706-0.705h1.202c0.136-0.883,0.484-1.723,1.013-2.445l-0.85-0.852
				c-0.132-0.131-0.207-0.313-0.206-0.498c-0.001-0.185,0.074-0.367,0.206-0.498l0.207-0.208c0.131-0.132,0.313-0.206,0.498-0.206
				c0.189,0,0.366,0.074,0.499,0.206l0.851,0.851c0.723-0.529,1.562-0.878,2.445-1.013v-1.202c0-0.389,0.316-0.705,0.704-0.705
				h0.294c0.389,0,0.704,0.315,0.705,0.704v1.202c0.884,0.136,1.723,0.482,2.445,1.014l0.851-0.851
				c0.134-0.132,0.312-0.206,0.498-0.206c0.19,0,0.366,0.074,0.499,0.206l0.209,0.208c0.13,0.131,0.205,0.313,0.205,0.499
				s-0.073,0.364-0.205,0.497l-0.852,0.852c0.529,0.723,0.877,1.563,1.013,2.445h1.202c0.389,0,0.705,0.316,0.707,0.705v0.293
				c-0.002,0.389-0.318,0.704-0.705,0.704h-1.205c-0.135,0.886-0.483,1.724-1.012,2.447l0.852,0.85
				c0.132,0.133,0.205,0.311,0.205,0.499s-0.073,0.363-0.205,0.498l-0.209,0.208c-0.13,0.13-0.312,0.206-0.498,0.206
				c-0.19,0-0.365-0.074-0.499-0.206l-0.851-0.851c-0.723,0.529-1.562,0.877-2.445,1.013v1.204
				c-0.001,0.387-0.316,0.703-0.703,0.703H37.814L37.814,58.437z M37.773,56.593v1.141c0,0.02,0.021,0.037,0.042,0.037h0.292
				c0.021,0,0.039-0.018,0.039-0.039v-1.139c-0.059,0.002-0.121,0.002-0.186,0.002S37.834,56.595,37.773,56.593L37.773,56.593z
				 M37.961,46.099c-1.313,0-2.547,0.512-3.476,1.439c-0.929,0.93-1.439,2.164-1.439,3.477s0.511,2.547,1.439,3.476
				s2.163,1.441,3.476,1.441s2.547-0.513,3.476-1.441s1.439-2.163,1.439-3.476s-0.511-2.547-1.439-3.477
				C40.508,46.61,39.273,46.099,37.961,46.099L37.961,46.099z M41.773,55.09l0.806,0.807c0.008,0.008,0.018,0.011,0.027,0.011
				c0.009,0,0.021-0.002,0.027-0.011l0.208-0.208c0.006-0.005,0.012-0.013,0.012-0.027c0-0.016-0.006-0.023-0.011-0.027
				l-0.808-0.809C41.951,54.917,41.864,55.005,41.773,55.09L41.773,55.09z M33.886,54.825l-0.807,0.809
				c-0.007,0.008-0.011,0.016-0.011,0.027c0,0.018,0.007,0.024,0.01,0.026l0.209,0.209c0.002,0.002,0.012,0.011,0.027,0.011
				c0.008,0,0.02-0.002,0.027-0.011l0.809-0.807C34.059,55.005,33.971,54.917,33.886,54.825L33.886,54.825z M43.537,51.2h1.141
				c0.021,0,0.041-0.018,0.041-0.039v-0.293c0-0.021-0.02-0.04-0.041-0.04h-1.141c0.004,0.065,0.005,0.126,0.005,0.187
				C43.542,51.074,43.541,51.136,43.537,51.2L43.537,51.2z M31.244,50.828L31.244,50.828c-0.021,0-0.04,0.019-0.04,0.041v0.292
				c0,0.021,0.019,0.039,0.04,0.039h1.141c-0.004-0.064-0.005-0.126-0.005-0.186c0-0.061,0.001-0.121,0.005-0.187H31.244
				L31.244,50.828z M33.314,46.122c-0.016,0-0.025,0.008-0.027,0.011l-0.208,0.209c-0.005,0.004-0.011,0.012-0.011,0.027
				c0,0.015,0.006,0.022,0.011,0.027l0.807,0.808c0.085-0.091,0.173-0.18,0.265-0.264l-0.809-0.808
				C33.34,46.13,33.33,46.122,33.314,46.122L33.314,46.122z M41.773,46.94c0.091,0.084,0.178,0.174,0.263,0.264l0.806-0.808
				c0.006-0.005,0.012-0.013,0.012-0.027c0-0.017-0.008-0.026-0.011-0.028l-0.209-0.208c-0.001-0.003-0.011-0.011-0.027-0.011
				c-0.016,0-0.024,0.008-0.027,0.011L41.773,46.94L41.773,46.94z M37.961,45.434c0.061,0,0.121,0.001,0.186,0.003v-1.139
				c0-0.021-0.019-0.041-0.04-0.041h-0.292c-0.021,0-0.041,0.02-0.041,0.041v1.139C37.84,45.435,37.9,45.434,37.961,45.434
				L37.961,45.434z M37.961,55.028c-2.213,0-4.014-1.801-4.014-4.014c0-2.214,1.801-4.014,4.014-4.014s4.014,1.8,4.014,4.014
				C41.975,53.228,40.174,55.028,37.961,55.028L37.961,55.028z M38.293,52.726v1.62c0.656-0.064,1.279-0.323,1.789-0.739
				l-1.146-1.148C38.741,52.591,38.523,52.681,38.293,52.726L38.293,52.726z M35.841,53.606c0.511,0.416,1.133,0.675,1.788,0.739
				v-1.62c-0.23-0.045-0.447-0.135-0.642-0.268L35.841,53.606L35.841,53.606z M39.406,51.989l1.146,1.146
				c0.417-0.51,0.676-1.133,0.739-1.789h-1.62C39.627,51.577,39.537,51.794,39.406,51.989L39.406,51.989z M34.63,51.347
				c0.064,0.656,0.322,1.279,0.739,1.789l1.146-1.146c-0.131-0.195-0.221-0.412-0.266-0.643H34.63L34.63,51.347z M37.961,49.937
				c-0.594,0.002-1.076,0.485-1.076,1.078s0.483,1.076,1.076,1.076s1.076-0.483,1.076-1.077
				C39.037,50.422,38.554,49.938,37.961,49.937L37.961,49.937z M39.672,50.683h1.62c-0.063-0.656-0.322-1.279-0.739-1.789
				l-1.146,1.146C39.537,50.235,39.627,50.452,39.672,50.683L39.672,50.683z M34.63,50.683h1.622
				c0.043-0.23,0.133-0.447,0.264-0.643l-1.146-1.146C34.952,49.403,34.694,50.026,34.63,50.683L34.63,50.683z M38.293,49.304
				c0.23,0.045,0.448,0.135,0.643,0.267l1.146-1.147c-0.51-0.416-1.133-0.676-1.789-0.74V49.304L38.293,49.304z M35.841,48.423
				l1.146,1.147c0.194-0.133,0.412-0.222,0.643-0.267v-1.621C36.974,47.747,36.352,48.007,35.841,48.423L35.841,48.423z
				 M37.961,51.935c-0.508,0-0.92-0.412-0.92-0.92s0.412-0.92,0.92-0.92c0.507,0,0.92,0.412,0.92,0.92S38.468,51.935,37.961,51.935
				L37.961,51.935z M37.961,50.759c-0.141,0.002-0.254,0.116-0.255,0.256c0.001,0.141,0.114,0.254,0.255,0.256
				c0.141-0.002,0.255-0.115,0.256-0.257C38.216,50.875,38.102,50.761,37.961,50.759L37.961,50.759z"/>
		</g>
	</g>
	<g>
		<rect x="31.248" y="11.069" fill="#4D5168" width="13.426" height="0.448"/>
	</g>
	<g>
		<rect x="34.978" y="14.128" fill="#4D5168" width="5.968" height="0.448"/>
	</g>
</g>
</svg>
