<?xml version="1.0" encoding="utf-8"?>
<!-- Generator: Adobe Illustrator 13.0.0, SVG Export Plug-In . SVG Version: 6.00 Build 14948)  -->
<!DOCTYPE svg PUBLIC "-//W3C//DTD SVG 1.1//EN" "http://www.w3.org/Graphics/SVG/1.1/DTD/svg11.dtd">
<svg version="1.1" id="Layer_1" xmlns="http://www.w3.org/2000/svg" xmlns:xlink="http://www.w3.org/1999/xlink" x="0px" y="0px"
	 width="91.632px" height="50.184px" viewBox="0 0 91.632 50.184" enable-background="new 0 0 91.632 50.184" xml:space="preserve">
<g>
	<g>
		<g>
			<g enable-background="new    ">
				<path fill="#4D5168" d="M13.856,8.355h1.763v4.053h1.979V8.355h1.774v9.712h-1.774v-4.389h-1.979v4.389h-1.763V8.355z"/>
				<path fill="#4D5168" d="M25.858,17.815c-0.4-0.256-0.68-0.619-0.839-1.091c-0.16-0.472-0.24-1.071-0.24-1.799v-6.57h1.727v6.774
					c0,0.56,0.066,0.991,0.198,1.295s0.401,0.455,0.809,0.455c0.416,0,0.689-0.151,0.821-0.455c0.132-0.304,0.198-0.735,0.198-1.295
					V8.355h1.714v6.57c0,0.72-0.08,1.317-0.24,1.793c-0.16,0.476-0.439,0.841-0.839,1.097s-0.951,0.384-1.655,0.384
					C26.81,18.199,26.258,18.071,25.858,17.815z"/>
				<path fill="#4D5168" d="M35.63,8.355h2.29c0.783,0,1.399,0.105,1.847,0.317c0.447,0.212,0.765,0.536,0.953,0.972
					c0.188,0.436,0.282,1.013,0.282,1.732v3.537c0,0.735-0.094,1.331-0.282,1.786c-0.188,0.456-0.502,0.798-0.941,1.025
					s-1.035,0.342-1.787,0.342H35.63V8.355z M37.944,16.832c0.392,0,0.675-0.067,0.852-0.203c0.176-0.136,0.288-0.326,0.335-0.57
					c0.048-0.243,0.072-0.605,0.072-1.085v-3.717c0-0.432-0.028-0.759-0.084-0.983c-0.056-0.224-0.174-0.39-0.354-0.497
					c-0.18-0.108-0.461-0.162-0.845-0.162h-0.527v7.218H37.944z"/>
				<path fill="#4D5168" d="M46.775,17.456c-0.436-0.496-0.673-1.235-0.713-2.219l1.522-0.3c0.024,0.616,0.122,1.086,0.294,1.409
					c0.172,0.324,0.441,0.485,0.81,0.485c0.271,0,0.474-0.081,0.605-0.245s0.198-0.386,0.198-0.666c0-0.384-0.086-0.707-0.258-0.971
					s-0.442-0.56-0.811-0.888l-1.223-1.067c-0.375-0.335-0.657-0.681-0.846-1.037c-0.187-0.355-0.281-0.793-0.281-1.313
					c0-0.768,0.224-1.359,0.672-1.774c0.447-0.416,1.066-0.624,1.858-0.624c0.831,0,1.427,0.238,1.786,0.714
					s0.568,1.117,0.623,1.924l-1.521,0.265c-0.024-0.52-0.095-0.916-0.211-1.188c-0.115-0.271-0.342-0.407-0.677-0.407
					c-0.272,0-0.485,0.084-0.642,0.251c-0.156,0.168-0.234,0.389-0.234,0.66c0,0.312,0.064,0.571,0.192,0.779s0.327,0.436,0.6,0.684
					l1.211,1.066c0.456,0.408,0.812,0.832,1.067,1.271s0.383,0.955,0.383,1.547c0,0.464-0.102,0.875-0.305,1.234
					c-0.204,0.36-0.49,0.642-0.857,0.846c-0.368,0.204-0.791,0.306-1.271,0.306C47.869,18.199,47.21,17.951,46.775,17.456z"/>
				<path fill="#4D5168" d="M56.708,17.389c-0.432-0.539-0.646-1.328-0.646-2.368v-3.645c0-1.031,0.215-1.811,0.646-2.338
					c0.432-0.528,1.151-0.792,2.158-0.792c1,0,1.715,0.264,2.146,0.792c0.432,0.527,0.647,1.307,0.647,2.338v3.645
					c0,1.031-0.218,1.819-0.653,2.362c-0.436,0.544-1.148,0.815-2.141,0.815C57.86,18.199,57.14,17.929,56.708,17.389z
					 M59.659,16.52c0.136-0.247,0.204-0.607,0.204-1.079v-4.473c0-0.471-0.066-0.827-0.198-1.066c-0.132-0.24-0.397-0.36-0.798-0.36
					c-0.399,0-0.667,0.122-0.803,0.366c-0.137,0.244-0.204,0.598-0.204,1.061v4.473c0,0.472,0.067,0.832,0.204,1.079
					c0.136,0.248,0.403,0.372,0.803,0.372C59.259,16.892,59.523,16.768,59.659,16.52z"/>
				<path fill="#4D5168" d="M66.96,8.355h1.234l2.363,5.539V8.355h1.463v9.712h-1.176l-2.374-5.804v5.804H66.96V8.355z"/>
			</g>
		</g>
		<g>
			<g enable-background="new    ">
				<path fill="#4D5168" d="M40.005,45.266c-0.155-0.176-0.239-0.438-0.253-0.787l0.541-0.106c0.008,0.219,0.043,0.385,0.104,0.5
					c0.061,0.114,0.157,0.172,0.288,0.172c0.096,0,0.168-0.029,0.215-0.087c0.047-0.059,0.07-0.137,0.07-0.236
					c0-0.136-0.031-0.251-0.092-0.345s-0.157-0.198-0.287-0.314l-0.434-0.379c-0.133-0.119-0.233-0.242-0.3-0.368
					c-0.067-0.126-0.1-0.281-0.1-0.466c0-0.272,0.08-0.482,0.238-0.63s0.379-0.221,0.66-0.221c0.295,0,0.506,0.084,0.634,0.253
					c0.128,0.169,0.202,0.396,0.221,0.683l-0.54,0.094c-0.009-0.185-0.034-0.325-0.075-0.421c-0.041-0.097-0.121-0.146-0.24-0.146
					c-0.097,0-0.172,0.03-0.228,0.09c-0.055,0.06-0.083,0.138-0.083,0.234c0,0.11,0.022,0.202,0.068,0.276
					c0.045,0.073,0.116,0.154,0.213,0.242l0.43,0.379c0.162,0.145,0.288,0.295,0.378,0.451s0.136,0.339,0.136,0.549
					c0,0.164-0.036,0.311-0.108,0.438c-0.072,0.127-0.174,0.228-0.304,0.3s-0.281,0.108-0.451,0.108
					C40.393,45.53,40.159,45.442,40.005,45.266z"/>
				<path fill="#4D5168" d="M41.956,42.037h0.622v3.446h-0.622V42.037z"/>
				<path fill="#4D5168" d="M43.109,42.037h0.438l0.838,1.966v-1.966h0.519v3.446h-0.417l-0.842-2.06v2.06h-0.536V42.037z"/>
				<path fill="#4D5168" d="M45.596,45.23c-0.149-0.2-0.224-0.483-0.224-0.849v-1.23c0-0.377,0.074-0.663,0.221-0.859
					c0.147-0.195,0.401-0.293,0.762-0.293c0.338,0,0.577,0.085,0.719,0.255c0.143,0.17,0.213,0.416,0.213,0.736v0.289h-0.604v-0.298
					c0-0.122-0.006-0.218-0.018-0.287s-0.04-0.126-0.087-0.17s-0.12-0.066-0.22-0.066c-0.102,0-0.178,0.023-0.229,0.07
					c-0.051,0.047-0.084,0.109-0.1,0.188c-0.016,0.078-0.023,0.179-0.023,0.304v1.494c0,0.195,0.025,0.337,0.077,0.423
					c0.051,0.087,0.143,0.13,0.276,0.13c0.097,0,0.168-0.022,0.215-0.068c0.047-0.045,0.077-0.105,0.09-0.181s0.02-0.175,0.02-0.3
					v-0.311h0.604v0.276c0,0.332-0.069,0.59-0.208,0.772c-0.14,0.183-0.38,0.274-0.724,0.274
					C45.998,45.53,45.745,45.43,45.596,45.23z"/>
				<path fill="#4D5168" d="M47.726,42.037h1.445v0.442h-0.82v0.991h0.646v0.438h-0.646v1.145h0.83v0.43h-1.455V42.037z"/>
				<path fill="#4D5168" d="M51.232,42.687c-0.029,0.021-0.133,0.053-0.311,0.099c-0.146,0.042-0.219,0.064-0.222,0.067v-0.438
					c0.113-0.04,0.237-0.095,0.372-0.164s0.233-0.142,0.296-0.215h0.455v3.446h-0.591V42.687z"/>
				<path fill="#4D5168" d="M52.88,45.311c-0.139-0.146-0.209-0.364-0.215-0.653v-0.052h0.565c0,0.165,0.021,0.283,0.062,0.354
					c0.041,0.071,0.121,0.106,0.24,0.106c0.111,0,0.188-0.053,0.232-0.159s0.066-0.29,0.066-0.552v-0.408
					c-0.041,0.068-0.102,0.121-0.184,0.157c-0.082,0.037-0.18,0.056-0.293,0.056c-0.482,0-0.725-0.338-0.725-1.013
					c0-0.36,0.072-0.642,0.215-0.845c0.145-0.203,0.371-0.304,0.684-0.304c0.307,0,0.533,0.1,0.681,0.3
					c0.147,0.199,0.222,0.47,0.222,0.811v1.221c0,0.375-0.068,0.668-0.202,0.881c-0.135,0.213-0.368,0.319-0.7,0.319
					C53.234,45.53,53.017,45.457,52.88,45.311z M53.832,43.526V42.99c0-0.168-0.022-0.3-0.066-0.396
					c-0.044-0.097-0.123-0.146-0.236-0.146s-0.192,0.052-0.236,0.155s-0.066,0.255-0.066,0.453c0,0.156,0.006,0.277,0.016,0.364
					s0.037,0.157,0.08,0.211c0.045,0.054,0.115,0.08,0.211,0.08C53.661,43.713,53.76,43.651,53.832,43.526z"/>
				<path fill="#4D5168" d="M55.763,42.488h-0.932v-0.451h1.51v0.357l-0.697,3.089h-0.57L55.763,42.488z"/>
				<path fill="#4D5168" d="M56.949,45.272c-0.127-0.174-0.189-0.433-0.189-0.776h0.574c0,0.196,0.021,0.344,0.063,0.442
					c0.042,0.1,0.126,0.149,0.251,0.149c0.094,0,0.163-0.03,0.209-0.092c0.045-0.061,0.074-0.144,0.087-0.247
					s0.019-0.247,0.019-0.432c0-0.227-0.021-0.395-0.063-0.502s-0.13-0.162-0.264-0.162c-0.079,0-0.147,0.027-0.202,0.081
					s-0.096,0.128-0.121,0.222h-0.506l0.033-1.919h1.549v0.527h-1.055l-0.034,0.83c0.048-0.054,0.118-0.098,0.208-0.13
					c0.091-0.033,0.19-0.049,0.299-0.049c0.243,0,0.424,0.093,0.542,0.278s0.177,0.447,0.177,0.785c0,0.264-0.025,0.486-0.074,0.668
					c-0.051,0.182-0.141,0.325-0.271,0.43c-0.13,0.105-0.314,0.157-0.553,0.157C57.3,45.534,57.074,45.447,56.949,45.272z"/>
			</g>
		</g>
		<g>
			<g enable-background="new    ">
				<path fill="#4D5168" d="M80,42.037h0.626v1.438h0.701v-1.438h0.631v3.446h-0.631v-1.558h-0.701v1.558H80V42.037z"/>
				<path fill="#4D5168" d="M82.486,42.037h0.813c0.277,0,0.496,0.037,0.655,0.112s0.271,0.19,0.339,0.345
					c0.066,0.154,0.1,0.359,0.1,0.615v1.255c0,0.261-0.033,0.473-0.1,0.634c-0.067,0.162-0.179,0.283-0.334,0.364
					c-0.156,0.081-0.368,0.121-0.635,0.121h-0.838V42.037z M83.306,45.045c0.14,0,0.24-0.023,0.303-0.072
					c0.063-0.048,0.102-0.115,0.119-0.202c0.018-0.086,0.025-0.215,0.025-0.385v-1.319c0-0.153-0.01-0.27-0.029-0.349
					s-0.063-0.139-0.126-0.177s-0.163-0.058-0.3-0.058h-0.188v2.562H83.306z"/>
			</g>
		</g>
		<g>
			<g enable-background="new    ">
				<path fill="#4D5168" d="M39.888,29.699h0.651l0.49,2.387l0.506-2.387h0.634l0.064,3.446h-0.468l-0.051-2.396l-0.49,2.396h-0.378
					l-0.498-2.404L40.3,33.145h-0.472L39.888,29.699z"/>
				<path fill="#4D5168" d="M43.258,29.699h0.672l0.689,3.446h-0.583L43.9,32.349h-0.6l-0.14,0.796h-0.592L43.258,29.699z
					 M43.832,31.95l-0.234-1.447l-0.234,1.447H43.832z"/>
				<path fill="#4D5168" d="M44.964,29.699h0.813c0.278,0,0.497,0.037,0.655,0.112c0.159,0.075,0.271,0.19,0.339,0.345
					c0.066,0.154,0.1,0.359,0.1,0.615v1.255c0,0.261-0.033,0.473-0.1,0.634c-0.067,0.162-0.179,0.283-0.334,0.364
					c-0.157,0.081-0.368,0.121-0.635,0.121h-0.838V29.699z M45.785,32.707c0.139,0,0.24-0.023,0.302-0.072
					c0.063-0.048,0.102-0.115,0.119-0.202c0.017-0.086,0.025-0.215,0.025-0.385v-1.319c0-0.153-0.01-0.27-0.03-0.349
					c-0.02-0.079-0.062-0.139-0.125-0.177c-0.063-0.038-0.164-0.058-0.3-0.058H45.59v2.562H45.785z"/>
				<path fill="#4D5168" d="M47.333,29.699h1.447v0.442h-0.821v0.991h0.646v0.438h-0.646v1.145h0.829v0.43h-1.455V29.699z"/>
				<path fill="#4D5168" d="M50.066,29.699h0.523l0.285,2.233l0.357-2.226h0.425l0.37,2.226l0.281-2.233h0.519l-0.48,3.446h-0.511
					l-0.383-2.311l-0.379,2.311H50.55L50.066,29.699z"/>
				<path fill="#4D5168" d="M53.24,29.699h0.621v3.446H53.24V29.699z"/>
				<path fill="#4D5168" d="M54.729,30.163h-0.574v-0.464h1.766v0.464h-0.565v2.982h-0.626V30.163z"/>
				<path fill="#4D5168" d="M56.206,29.699h0.626v1.438h0.701v-1.438h0.631v3.446h-0.631v-1.558h-0.701v1.558h-0.626V29.699z"/>
				<path fill="#4D5168" d="M59.724,29.699h0.626v3.017h0.838v0.43h-1.464V29.699z"/>
				<path fill="#4D5168" d="M61.656,32.905c-0.152-0.191-0.229-0.472-0.229-0.841v-1.293c0-0.366,0.077-0.643,0.229-0.83
					c0.154-0.188,0.408-0.28,0.766-0.28c0.355,0,0.609,0.093,0.762,0.28c0.154,0.188,0.23,0.464,0.23,0.83v1.293
					c0,0.366-0.078,0.646-0.232,0.839c-0.154,0.192-0.407,0.289-0.76,0.289C62.064,33.192,61.81,33.096,61.656,32.905z
					 M62.703,32.596c0.049-0.088,0.072-0.216,0.072-0.383v-1.587c0-0.168-0.023-0.294-0.07-0.379s-0.141-0.128-0.283-0.128
					c-0.141,0-0.236,0.043-0.284,0.13s-0.073,0.212-0.073,0.377v1.587c0,0.167,0.025,0.295,0.073,0.383s0.144,0.132,0.284,0.132
					C62.561,32.728,62.655,32.684,62.703,32.596z"/>
				<path fill="#4D5168" d="M63.715,29.699h0.554l0.455,2.438l0.43-2.438h0.566l-0.694,3.446H64.41L63.715,29.699z"/>
				<path fill="#4D5168" d="M66.073,29.699h1.446v0.442h-0.82v0.991h0.646v0.438h-0.646v1.145h0.829v0.43h-1.455V29.699z"/>
			</g>
		</g>
		<g>
			<g>
				<path fill="#4D5168" d="M24.117,38.115v-0.901h-2.344c-0.101-1.503-0.695-2.865-1.627-3.934l1.09-1.091l-0.637-0.64
					l-1.091,1.092c-1.066-0.933-2.43-1.526-3.932-1.628v-2.343h-0.903v2.343c-1.502,0.102-2.867,0.695-3.932,1.628L9.65,31.55
					l-0.64,0.64l1.091,1.091c-0.931,1.067-1.526,2.431-1.626,3.933H6.129v0.902h2.345c0.1,1.503,0.695,2.866,1.628,3.934
					L9.01,43.139l0.639,0.639l1.091-1.091c1.065,0.931,2.43,1.526,3.932,1.628v2.344h0.903v-2.344
					c1.502-0.102,2.866-0.696,3.932-1.628l1.091,1.09l0.637-0.638l-1.09-1.091c0.932-1.066,1.527-2.431,1.627-3.934H24.117z
					 M20.87,37.214h-3.292c-0.065-0.354-0.201-0.682-0.397-0.967l2.325-2.327C20.275,34.82,20.771,35.96,20.87,37.214z
					 M15.124,39.262c-0.882-0.003-1.597-0.716-1.599-1.599c0.002-0.883,0.717-1.594,1.599-1.598
					c0.883,0.004,1.597,0.715,1.598,1.598C16.72,38.547,16.006,39.26,15.124,39.262z M18.867,33.283l-2.325,2.324
					c-0.285-0.197-0.613-0.333-0.967-0.398v-3.291C16.829,32.017,17.967,32.512,18.867,33.283z M14.672,31.918v3.291
					c-0.354,0.065-0.682,0.203-0.968,0.4l-2.325-2.326C12.28,32.512,13.418,32.017,14.672,31.918z M10.741,33.92l2.327,2.326
					c-0.198,0.284-0.334,0.613-0.399,0.967H9.377C9.476,35.959,9.971,34.82,10.741,33.92z M9.377,38.115h3.292
					c0.065,0.355,0.202,0.683,0.398,0.967l-2.326,2.326C9.971,40.508,9.476,39.368,9.377,38.115z M11.38,42.047l2.325-2.325
					c0.285,0.196,0.613,0.333,0.967,0.397v3.291C13.418,43.312,12.28,42.816,11.38,42.047z M15.575,43.41v-3.291
					c0.354-0.064,0.681-0.201,0.965-0.397l2.327,2.325C17.967,42.816,16.828,43.312,15.575,43.41z M19.505,41.408l-2.326-2.326
					c0.197-0.284,0.333-0.61,0.398-0.967h3.292C20.771,39.369,20.275,40.508,19.505,41.408z"/>
			</g>
		</g>
		<g>
			<g>
				<path fill="#4D5168" d="M0,0v50.184h91.632V0H0z M90.523,1.108l0.001,23.774H1.108V1.108H90.523z M30.707,37.983h41.865v11.091
					H30.707V37.983z M30.707,36.874V25.992h59.817v10.882H30.707z M1.108,25.992h28.489v23.082H1.108V25.992z M73.68,49.074V37.983
					h16.844v11.091H73.68z"/>
			</g>
		</g>
	</g>
</g>
</svg>
