<?xml version="1.0" encoding="utf-8"?>
<!-- Generator: Adobe Illustrator 13.0.0, SVG Export Plug-In . SVG Version: 6.00 Build 14948)  -->
<!DOCTYPE svg PUBLIC "-//W3C//DTD SVG 1.1//EN" "http://www.w3.org/Graphics/SVG/1.1/DTD/svg11.dtd">
<svg version="1.1" id="Layer_1" xmlns="http://www.w3.org/2000/svg" xmlns:xlink="http://www.w3.org/1999/xlink" x="0px" y="0px"
	 width="105.497px" height="57.367px" viewBox="0 0 105.497 57.367" enable-background="new 0 0 105.497 57.367"
	 xml:space="preserve">
<g>
	<g>
		<path fill="#4D5168" d="M93.939,24.581H11.284V43.71h82.655V24.581z M25.728,38.012l-0.331-1.927h-1.453l-0.34,1.927h-1.432
			l1.668-8.347h1.628l1.668,8.347H25.728z M33.466,30.789h-1.371v7.224H30.58v-7.224h-1.391v-1.123h4.277V30.789z M39.74,38.012
			h-3.544v-8.347h1.515v7.306h2.029V38.012z M45.726,38.012l-0.33-1.927h-1.452l-0.341,1.927h-1.432l1.67-8.347h1.627l1.67,8.347
			H45.726z M54.381,38.012H53.37l-2.039-4.986v4.986h-1.299v-8.347h1.063l2.029,4.76v-4.76h1.257V38.012L54.381,38.012z
			 M61.409,30.789h-1.371v7.224h-1.515v-7.224h-1.392v-1.123h4.275v1.123H61.409z M65.684,38.012H64.18v-8.347h1.504V38.012z
			 M73.649,35.303c0,0.631-0.081,1.143-0.242,1.534c-0.16,0.392-0.431,0.687-0.81,0.881c-0.377,0.195-0.89,0.294-1.535,0.294h-2.028
			v-8.347h1.969c0.672,0,1.201,0.092,1.586,0.273s0.658,0.461,0.818,0.834c0.161,0.375,0.242,0.871,0.242,1.488V35.303z
			 M79.852,38.012l-0.33-1.927H78.07l-0.34,1.927h-1.435l1.67-8.347h1.629l1.669,8.347H79.852z M44.098,35.117h1.134l-0.566-3.504
			L44.098,35.117z M24.099,35.117h1.133l-0.566-3.504L24.099,35.117z M71.727,30.887c-0.154-0.093-0.396-0.14-0.727-0.14h-0.453
			v6.203h0.474c0.337,0,0.581-0.059,0.731-0.176c0.15-0.115,0.248-0.279,0.289-0.488s0.062-0.521,0.062-0.934V32.16
			c0-0.371-0.022-0.652-0.071-0.846C71.983,31.123,71.881,30.98,71.727,30.887z M78.224,35.117h1.134l-0.566-3.504L78.224,35.117z
			 M10.109,44.91h-0.02V29.365H0l5.25,10.164L0,49.691h16.533l-6.426-4.77L10.109,44.91z M105.499,29.365H95.411V44.91h-0.021
			l0.002,0.012l-6.426,4.771h16.531l-5.25-10.162L105.499,29.365z M17.114,48.632v-3.594h-4.843L17.114,48.632z M88.383,45.039
			v3.594l4.844-3.594H88.383z"/>
		<g>
			<g enable-background="new    ">
				<path fill="#4D5168" d="M38.939,1.346h4.332l-0.009,1.049h-3.121V4.09h2.843v1.049h-2.843v2.484h-1.202V1.346z"/>
				<path fill="#4D5168" d="M45.163,1.346h1.202v6.277h-1.202V1.346z"/>
				<path fill="#4D5168" d="M53.279,1.346h1.166v6.277h-1.14l-3.228-4.322v4.322h-1.175V1.346h1.139l3.237,4.331V1.346z"/>
				<path fill="#4D5168" d="M61.278,1.744c0.496,0.267,0.885,0.639,1.166,1.117s0.422,1.02,0.422,1.623s-0.143,1.144-0.426,1.618
					c-0.284,0.476-0.678,0.848-1.18,1.117c-0.502,0.269-1.073,0.403-1.713,0.403h-2.564V1.346h2.609
					C60.22,1.346,60.782,1.479,61.278,1.744z M60.655,6.3c0.309-0.176,0.549-0.421,0.723-0.735c0.173-0.313,0.26-0.671,0.26-1.071
					s-0.09-0.761-0.27-1.08c-0.18-0.32-0.426-0.568-0.74-0.745c-0.313-0.176-0.664-0.265-1.053-0.265h-1.391v4.161h1.436
					C60.002,6.564,60.347,6.477,60.655,6.3z"/>
			</g>
		</g>
		<g>
			<g enable-background="new    ">
				<path fill="#4D5168" d="M27.526,11.758l-2.287,4.224v2.054h-1.202v-2.009l-2.34-4.269h1.219l1.713,2.95l1.686-2.95H27.526z"/>
				<path fill="#4D5168" d="M33.611,12.099c0.511,0.281,0.914,0.666,1.207,1.156c0.292,0.49,0.439,1.035,0.439,1.633
					s-0.147,1.144-0.439,1.637c-0.293,0.493-0.695,0.883-1.207,1.17s-1.078,0.431-1.699,0.431c-0.622,0-1.188-0.144-1.699-0.431
					c-0.511-0.287-0.914-0.677-1.207-1.17s-0.439-1.039-0.439-1.637s0.146-1.143,0.439-1.633s0.695-0.875,1.207-1.156
					c0.511-0.281,1.077-0.422,1.699-0.422C32.533,11.677,33.1,11.817,33.611,12.099z M30.862,13.035
					c-0.329,0.188-0.589,0.446-0.78,0.771c-0.191,0.326-0.287,0.687-0.287,1.081s0.097,0.756,0.291,1.085s0.455,0.589,0.78,0.78
					c0.326,0.191,0.68,0.287,1.063,0.287c0.376,0,0.726-0.096,1.049-0.287c0.323-0.191,0.578-0.451,0.767-0.78
					s0.282-0.69,0.282-1.085s-0.094-0.755-0.282-1.081c-0.188-0.325-0.444-0.583-0.767-0.771c-0.323-0.188-0.673-0.282-1.049-0.282
					C31.547,12.753,31.191,12.848,30.862,13.035z"/>
				<path fill="#4D5168" d="M38.817,16.618c0.281,0.281,0.658,0.422,1.13,0.422s0.844-0.141,1.117-0.422
					c0.272-0.281,0.408-0.67,0.408-1.166v-3.694h1.202v3.694c0,0.544-0.111,1.019-0.332,1.422s-0.537,0.713-0.946,0.928
					c-0.409,0.216-0.892,0.323-1.448,0.323c-0.562,0-1.051-0.107-1.466-0.323c-0.416-0.215-0.734-0.524-0.955-0.928
					s-0.332-0.878-0.332-1.422v-3.694h1.202v3.694C38.396,15.948,38.536,16.337,38.817,16.618z"/>
				<path fill="#4D5168" d="M49.013,18.035l-1.085-1.856c-0.048,0.006-0.123,0.009-0.225,0.009h-1.417v1.848h-1.202v-6.277h2.619
					c0.813,0,1.441,0.188,1.883,0.564c0.442,0.377,0.664,0.909,0.664,1.597c0,0.49-0.106,0.909-0.318,1.256
					c-0.212,0.347-0.521,0.606-0.928,0.78l1.381,2.08H49.013z M46.287,15.13h1.417c0.455,0,0.801-0.099,1.041-0.296
					s0.359-0.49,0.359-0.879c0-0.383-0.12-0.67-0.359-0.861s-0.586-0.287-1.041-0.287h-1.417V15.13z"/>
				<path fill="#4D5168" d="M55.519,12.914c-0.338-0.107-0.636-0.161-0.892-0.161c-0.287,0-0.515,0.054-0.682,0.161
					c-0.168,0.108-0.252,0.258-0.252,0.449c0,0.173,0.059,0.318,0.176,0.435c0.116,0.116,0.262,0.212,0.439,0.287
					c0.176,0.074,0.416,0.157,0.721,0.246c0.425,0.126,0.773,0.251,1.045,0.377c0.272,0.126,0.504,0.311,0.695,0.556
					c0.191,0.246,0.287,0.568,0.287,0.969c0,0.383-0.104,0.716-0.31,1s-0.49,0.501-0.852,0.65c-0.362,0.149-0.776,0.224-1.242,0.224
					c-0.49,0-0.969-0.091-1.435-0.273c-0.466-0.182-0.873-0.426-1.22-0.73l0.502-1.022c0.317,0.293,0.672,0.523,1.067,0.69
					c0.395,0.168,0.762,0.251,1.104,0.251c0.334,0,0.598-0.063,0.789-0.192s0.287-0.304,0.287-0.524c0-0.18-0.059-0.328-0.176-0.444
					c-0.116-0.116-0.264-0.211-0.443-0.282c-0.18-0.072-0.425-0.152-0.736-0.242c-0.424-0.126-0.771-0.248-1.039-0.368
					c-0.27-0.119-0.5-0.3-0.691-0.542c-0.191-0.242-0.287-0.561-0.287-0.955c0-0.365,0.097-0.684,0.292-0.955
					c0.194-0.272,0.469-0.483,0.825-0.633c0.355-0.149,0.767-0.224,1.232-0.224c0.406,0,0.809,0.06,1.207,0.179
					c0.396,0.12,0.752,0.281,1.063,0.484l-0.484,1.05C56.187,13.175,55.857,13.022,55.519,12.914z"/>
				<path fill="#4D5168" d="M59.192,11.758h4.6v1.049h-3.398v1.552h3.049v1.049h-3.049v1.579H63.9v1.049h-4.708V11.758z"/>
				<path fill="#4D5168" d="M66.114,11.758h1.203v5.192h2.707v1.085h-3.91V11.758z"/>
				<path fill="#4D5168" d="M71.961,11.758h4.332l-0.01,1.049h-3.12v1.695h2.843v1.049h-2.843v2.484h-1.202V11.758z"/>
			</g>
		</g>
		<g>
			<g enable-background="new    ">
				<path fill="#4D5168" d="M26.452,55.277c-0.195-0.285-0.293-0.678-0.293-1.182v-1.709c0-0.529,0.096-0.934,0.287-1.207
					c0.191-0.275,0.53-0.414,1.017-0.414c0.435,0,0.746,0.119,0.936,0.354s0.284,0.582,0.284,1.041v0.383h-0.64v-0.342
					c0-0.223-0.01-0.395-0.03-0.514s-0.071-0.215-0.152-0.287s-0.212-0.107-0.392-0.107c-0.183,0-0.32,0.039-0.41,0.115
					c-0.089,0.078-0.148,0.186-0.176,0.324c-0.028,0.137-0.042,0.322-0.042,0.553v1.918c0,0.248,0.02,0.441,0.06,0.58
					c0.04,0.141,0.104,0.24,0.194,0.299c0.09,0.061,0.214,0.09,0.374,0.09c0.171,0,0.299-0.037,0.383-0.113
					c0.083-0.076,0.136-0.18,0.158-0.311s0.033-0.311,0.033-0.537v-0.359h0.64v0.359c0,0.48-0.091,0.852-0.272,1.107
					c-0.182,0.258-0.498,0.387-0.948,0.387C26.984,55.705,26.647,55.562,26.452,55.277z"/>
				<path fill="#4D5168" d="M29.328,50.808h0.676v4.357h1.238v0.484h-1.914V50.808z"/>
				<path fill="#4D5168" d="M31.877,55.3c-0.205-0.27-0.308-0.658-0.308-1.168v-1.836c0-0.502,0.104-0.883,0.311-1.143
					c0.208-0.258,0.546-0.389,1.017-0.389s0.808,0.131,1.013,0.393c0.206,0.262,0.308,0.641,0.308,1.139v1.842
					c0,0.502-0.104,0.889-0.311,1.16c-0.207,0.27-0.544,0.406-1.01,0.406C32.422,55.705,32.083,55.57,31.877,55.3z M33.405,54.951
					c0.087-0.146,0.131-0.371,0.131-0.67V52.16c0-0.295-0.044-0.514-0.131-0.656c-0.088-0.141-0.257-0.211-0.508-0.211
					c-0.255,0-0.427,0.07-0.514,0.211c-0.088,0.143-0.131,0.361-0.131,0.656v2.121c0,0.299,0.043,0.523,0.131,0.67
					c0.087,0.148,0.259,0.221,0.514,0.221C33.148,55.171,33.317,55.099,33.405,54.951z"/>
				<path fill="#4D5168" d="M35.378,51.31h-0.879v-0.502h2.409v0.502h-0.855v4.34h-0.675V51.31z"/>
				<path fill="#4D5168" d="M37.273,50.808h0.676V52.9h1.244v-2.092h0.675v4.842h-0.675v-2.266h-1.244v2.266h-0.676V50.808z"/>
				<path fill="#4D5168" d="M40.663,50.808h0.664v4.842h-0.664V50.808z"/>
				<path fill="#4D5168" d="M42.109,50.808h0.46l1.375,3.217v-3.217h0.562v4.842h-0.43l-1.393-3.307v3.307h-0.574V50.808z"/>
				<path fill="#4D5168" d="M45.47,55.294c-0.195-0.277-0.293-0.688-0.293-1.234v-1.621c0-0.373,0.039-0.682,0.116-0.922
					c0.078-0.242,0.211-0.428,0.401-0.557c0.189-0.129,0.449-0.195,0.78-0.195c0.446,0,0.768,0.115,0.965,0.342
					s0.296,0.584,0.296,1.07v0.18h-0.634v-0.15c0-0.23-0.014-0.41-0.042-0.535c-0.028-0.125-0.087-0.221-0.177-0.283
					c-0.089-0.064-0.222-0.096-0.397-0.096c-0.188,0-0.327,0.043-0.418,0.129c-0.092,0.084-0.15,0.199-0.176,0.344
					c-0.026,0.143-0.039,0.334-0.039,0.572v1.795c0,0.371,0.045,0.637,0.135,0.797c0.089,0.162,0.262,0.242,0.517,0.242
					c0.251,0,0.423-0.086,0.517-0.262s0.141-0.457,0.141-0.844v-0.334h-0.616v-0.479h1.226v2.396h-0.425l-0.065-0.555
					c-0.152,0.41-0.438,0.615-0.861,0.615C45.981,55.71,45.665,55.572,45.47,55.294z"/>
				<path fill="#4D5168" d="M49.833,50.808h0.676v4.357h1.238v0.484h-1.914V50.808z"/>
				<path fill="#4D5168" d="M52.973,50.808h0.651l1.035,4.842h-0.641l-0.221-1.219h-0.986l-0.233,1.219h-0.634L52.973,50.808z
					 M53.708,53.947l-0.406-2.182l-0.4,2.182H53.708z"/>
				<path fill="#4D5168" d="M55.149,50.808h1.111c0.439,0,0.764,0.098,0.975,0.295s0.317,0.504,0.317,0.918
					c0,0.619-0.231,0.959-0.694,1.023c0.287,0.066,0.496,0.201,0.629,0.402c0.131,0.201,0.197,0.477,0.197,0.822
					c0,0.436-0.104,0.773-0.309,1.018c-0.205,0.242-0.518,0.363-0.936,0.363h-1.291V50.808z M56.225,52.828
					c0.279,0,0.473-0.061,0.58-0.182s0.161-0.33,0.161-0.625c0-0.215-0.033-0.373-0.099-0.475c-0.066-0.102-0.164-0.166-0.297-0.195
					c-0.131-0.027-0.326-0.041-0.585-0.041h-0.161v1.518H56.225z M56.279,55.166c0.199,0,0.354-0.029,0.463-0.092
					c0.11-0.063,0.187-0.156,0.23-0.285c0.044-0.127,0.065-0.301,0.065-0.52c0-0.311-0.063-0.543-0.191-0.695
					c-0.127-0.154-0.334-0.23-0.621-0.23h-0.4v1.822H56.279z"/>
				<path fill="#4D5168" d="M58.282,50.808h1.877v0.502h-1.201v1.602h0.975v0.479h-0.975v1.775h1.213v0.484h-1.889V50.808z"/>
				<path fill="#4D5168" d="M60.714,50.808h0.676v4.357h1.237v0.484h-1.913V50.808z"/>
				<path fill="#4D5168" d="M64.458,50.808h1.052c0.522,0,0.892,0.119,1.109,0.357c0.217,0.24,0.325,0.613,0.325,1.119v1.781
					c0,0.535-0.106,0.932-0.319,1.193c-0.214,0.26-0.567,0.391-1.062,0.391h-1.105V50.808z M65.516,55.166
					c0.234,0,0.404-0.045,0.51-0.137c0.106-0.092,0.172-0.217,0.198-0.373c0.026-0.158,0.038-0.396,0.038-0.715v-1.572
					c0-0.275-0.017-0.486-0.051-0.631c-0.033-0.146-0.104-0.254-0.212-0.322c-0.107-0.07-0.274-0.105-0.502-0.105h-0.364v3.855
					H65.516z"/>
				<path fill="#4D5168" d="M67.608,50.808h1.877v0.502h-1.201v1.602h0.975v0.479h-0.975v1.775h1.213v0.484h-1.889V50.808z"/>
				<path fill="#4D5168" d="M70.253,55.328c-0.214-0.252-0.332-0.596-0.355-1.035l0.598-0.16c0.021,0.311,0.081,0.561,0.183,0.752
					s0.27,0.287,0.505,0.287c0.175,0,0.308-0.049,0.397-0.146s0.135-0.238,0.135-0.42c0-0.195-0.042-0.359-0.125-0.488
					c-0.084-0.129-0.218-0.277-0.401-0.445l-0.813-0.717c-0.163-0.148-0.281-0.305-0.355-0.471c-0.074-0.164-0.11-0.365-0.11-0.6
					c0-0.359,0.104-0.635,0.312-0.828c0.207-0.193,0.492-0.291,0.854-0.291c0.378,0,0.661,0.102,0.849,0.305
					c0.188,0.205,0.301,0.52,0.341,0.945l-0.573,0.156c-0.021-0.275-0.072-0.492-0.156-0.648c-0.084-0.158-0.23-0.236-0.442-0.236
					c-0.386,0-0.579,0.178-0.579,0.531c0,0.145,0.023,0.262,0.071,0.355s0.13,0.195,0.245,0.303l0.818,0.717
					c0.212,0.195,0.381,0.402,0.506,0.619s0.188,0.463,0.188,0.738c0,0.355-0.107,0.637-0.322,0.844s-0.494,0.311-0.837,0.311
					C70.776,55.705,70.467,55.58,70.253,55.328z"/>
				<path fill="#4D5168" d="M72.905,50.808h0.664v4.842h-0.664V50.808z"/>
				<path fill="#4D5168" d="M74.555,55.294c-0.195-0.277-0.293-0.688-0.293-1.234v-1.621c0-0.373,0.038-0.682,0.115-0.922
					c0.078-0.242,0.212-0.428,0.401-0.557c0.188-0.129,0.449-0.195,0.78-0.195c0.446,0,0.768,0.115,0.965,0.342
					s0.297,0.584,0.297,1.07v0.18h-0.635v-0.15c0-0.23-0.014-0.41-0.041-0.535c-0.028-0.125-0.087-0.221-0.177-0.283
					c-0.089-0.064-0.222-0.096-0.397-0.096c-0.188,0-0.326,0.043-0.418,0.129c-0.092,0.084-0.15,0.199-0.177,0.344
					c-0.026,0.143-0.039,0.334-0.039,0.572v1.795c0,0.371,0.045,0.637,0.135,0.797c0.089,0.162,0.262,0.242,0.517,0.242
					c0.252,0,0.424-0.086,0.518-0.262s0.141-0.457,0.141-0.844v-0.334h-0.615v-0.479h1.225v2.396h-0.424l-0.066-0.555
					c-0.151,0.41-0.438,0.615-0.86,0.615C75.067,55.71,74.75,55.572,74.555,55.294z"/>
				<path fill="#4D5168" d="M77.549,50.808h0.461l1.375,3.217v-3.217h0.563v4.842h-0.431l-1.394-3.307v3.307h-0.574V50.808z"/>
			</g>
		</g>
	</g>
</g>
</svg>
