<?xml version="1.0" encoding="utf-8"?>
<!-- Generator: Adobe Illustrator 13.0.0, SVG Export Plug-In . SVG Version: 6.00 Build 14948)  -->
<!DOCTYPE svg PUBLIC "-//W3C//DTD SVG 1.1//EN" "http://www.w3.org/Graphics/SVG/1.1/DTD/svg11.dtd">
<svg version="1.1" id="Layer_1" xmlns="http://www.w3.org/2000/svg" xmlns:xlink="http://www.w3.org/1999/xlink" x="0px" y="0px"
	 width="72.346px" height="66.432px" viewBox="0 0 72.346 66.432" enable-background="new 0 0 72.346 66.432" xml:space="preserve">
<g>
	<g>
		<g>
			<g enable-background="new    ">
				<path fill="#4D5168" d="M0.419,34.857h2.37l1.95,10.444L6.58,34.857h2.424L6.033,49.621H3.39L0.419,34.857z"/>
				<path fill="#4D5168" d="M11.574,34.857h2.662v14.765h-2.662V34.857z"/>
				<path fill="#4D5168" d="M17.498,34.857h1.877l3.591,8.422v-8.422h2.224v14.765h-1.786l-3.609-8.822v8.822h-2.297V34.857z"/>
				<path fill="#4D5168" d="M29.856,36.844h-2.46v-1.987h7.564v1.987h-2.424v12.777h-2.68V36.844z"/>
				<path fill="#4D5168" d="M39.261,34.857h2.88l2.953,14.765h-2.498l-0.582-3.408h-2.57l-0.602,3.408h-2.534L39.261,34.857z
					 M41.722,44.499l-1.003-6.197l-1.002,6.197H41.722z"/>
				<path fill="#4D5168" d="M48.202,48.519c-0.613-0.869-0.92-2.124-0.92-3.765v-4.957c0-1.689,0.315-2.963,0.947-3.819
					s1.719-1.285,3.263-1.285c1.458,0,2.503,0.362,3.136,1.085c0.631,0.723,0.947,1.795,0.947,3.217v0.766h-2.57v-0.838
					c0-0.535-0.033-0.96-0.1-1.276c-0.067-0.315-0.207-0.559-0.42-0.729c-0.213-0.17-0.531-0.255-0.957-0.255
					c-0.449,0-0.783,0.109-1.002,0.328s-0.361,0.498-0.429,0.839c-0.067,0.34-0.101,0.783-0.101,1.33v6.18
					c0,0.838,0.113,1.464,0.338,1.877s0.646,0.62,1.267,0.62c0.607,0,1.03-0.219,1.267-0.656c0.237-0.438,0.355-1.094,0.355-1.969
					v-1.385h-1.586V42.13h4.01v7.491h-1.749l-0.183-1.44c-0.462,1.094-1.294,1.641-2.497,1.641
					C49.821,49.822,48.815,49.388,48.202,48.519z"/>
				<path fill="#4D5168" d="M58.692,34.857h6.197v1.896h-3.518v4.247h2.77v1.878h-2.77v4.903h3.554v1.841h-6.233V34.857z"/>
			</g>
		</g>
		<g>
			<g enable-background="new    ">
				<path fill="#4D5168" d="M13.784,62.31c-0.4-0.455-0.619-1.135-0.656-2.038l1.4-0.275c0.022,0.565,0.112,0.997,0.27,1.295
					c0.158,0.297,0.406,0.446,0.744,0.446c0.25,0,0.435-0.075,0.557-0.227c0.121-0.15,0.182-0.354,0.182-0.611
					c0-0.353-0.079-0.65-0.237-0.893c-0.158-0.242-0.406-0.514-0.744-0.815l-1.124-0.98c-0.345-0.309-0.604-0.627-0.777-0.953
					c-0.172-0.327-0.259-0.729-0.259-1.207c0-0.705,0.206-1.249,0.617-1.631c0.411-0.382,0.98-0.573,1.708-0.573
					c0.764,0,1.312,0.219,1.642,0.655c0.331,0.438,0.521,1.027,0.573,1.77l-1.399,0.242c-0.022-0.478-0.086-0.842-0.193-1.091
					c-0.106-0.25-0.314-0.375-0.623-0.375c-0.25,0-0.446,0.077-0.589,0.231c-0.144,0.154-0.215,0.356-0.215,0.606
					c0,0.286,0.059,0.525,0.177,0.716c0.117,0.191,0.301,0.4,0.551,0.628l1.113,0.981c0.418,0.374,0.745,0.764,0.98,1.168
					s0.353,0.878,0.353,1.421c0,0.427-0.093,0.805-0.281,1.136c-0.188,0.33-0.45,0.59-0.788,0.776
					c-0.338,0.188-0.727,0.281-1.168,0.281C14.789,62.993,14.184,62.766,13.784,62.31z"/>
				<path fill="#4D5168" d="M23.653,55.148h-1.488v-1.202h4.573v1.202h-1.466v7.725h-1.62V55.148z"/>
				<path fill="#4D5168" d="M32.689,59.467l-1.807-5.521h1.521l1.102,3.538l1.036-3.538h1.487l-1.785,5.521v3.405h-1.554V59.467z"/>
				<path fill="#4D5168" d="M40.8,53.946h1.619v7.813h2.172v1.113H40.8V53.946z"/>
				<path fill="#4D5168" d="M49.428,53.946h3.746v1.146h-2.127v2.567h1.676v1.136h-1.676v2.964h2.149v1.113h-3.769V53.946z"/>
			</g>
		</g>
		<g>
			<g>
				<path fill="#4D5168" d="M69.731,3.419c-0.063-0.073-2.638-3.007-10.936-2.848c-0.046-0.002-0.09-0.004-0.135-0.006
					C56.902,0.203,54.957,0,52.91,0c-4.266,0-8.095,0.875-10.719,2.265l-0.063,0.022c0,0-3.072,0.533-6.521,0.612
					c-3.446-0.079-6.521-0.612-6.521-0.612l-0.063-0.022C26.399,0.875,22.571,0,18.307,0c-2.048,0-3.993,0.203-5.753,0.564
					c-0.045,0.002-0.09,0.004-0.135,0.006C4.121,0.412,1.547,3.346,1.484,3.419C0.97,3.762,0.661,4.203,0.661,4.684
					c0,0.621,0.518,1.176,1.326,1.54V6.23c0,0,1.851,1.074,1.922,2.96c0,0.002,0,0.004,0,0.004c0.322,5.611,1.916,9.329,1.916,9.329
					l0.313,0.54c1.651,3.643,6.126,6.254,11.39,6.254c3.646,0,6.911-1.254,9.124-3.233c1.389-0.835,4.756-3.792,5.742-10.482h0.001
					c0.294-2.24,1.541-3.946,3.059-4.061c0.029-0.002,0.059-0.004,0.087-0.004c0.022-0.001,0.045-0.002,0.066-0.002
					s0.045,0.001,0.065,0.002c0.029,0,0.06,0.002,0.089,0.004c1.518,0.114,2.764,1.819,3.059,4.061h0.001
					c0.986,6.691,4.353,9.647,5.742,10.482c2.213,1.979,5.478,3.233,9.124,3.233c5.264,0,9.736-2.611,11.39-6.254l0.313-0.54
					c0,0,1.594-3.718,1.916-9.328c0,0,0-0.002,0-0.004c0.071-1.886,1.923-2.96,1.923-2.96l0.001-0.006
					c0.808-0.363,1.325-0.918,1.325-1.54C70.556,4.203,70.246,3.762,69.731,3.419z M30.852,7.992
					c0.053,8.671-3.818,12.241-5.259,13.133c-1.934,1.777-4.786,2.903-7.973,2.903c-4.599,0-8.509-2.346-9.951-5.616l-0.274-0.485
					c0,0-1.859-4.458-1.716-10.846C5.99,6.223,5.99,6.223,5.99,6.223L6,6.215c1.083-2.805,6.18-4.928,12.301-4.928
					c6.912,0,12.517,2.706,12.517,6.042C30.816,7.491,30.877,7.834,30.852,7.992z M63.821,17.926l-0.274,0.485
					c-1.442,3.271-5.354,5.616-9.951,5.616c-3.187,0-6.039-1.126-7.975-2.903c-1.438-0.892-5.311-4.462-5.257-13.133
					C40.339,7.834,40.4,7.491,40.4,7.33c0-3.336,5.603-6.042,12.515-6.042c6.123,0,11.218,2.123,12.302,4.928l0.012,0.006
					c0,0,0,0,0.31,0.858C65.681,13.468,63.821,17.926,63.821,17.926z"/>
			</g>
		</g>
	</g>
</g>
</svg>
