<?xml version="1.0" encoding="utf-8"?>
<!-- Generator: Adobe Illustrator 13.0.0, SVG Export Plug-In . SVG Version: 6.00 Build 14948)  -->
<!DOCTYPE svg PUBLIC "-//W3C//DTD SVG 1.1//EN" "http://www.w3.org/Graphics/SVG/1.1/DTD/svg11.dtd">
<svg version="1.1" id="Layer_1" xmlns="http://www.w3.org/2000/svg" xmlns:xlink="http://www.w3.org/1999/xlink" x="0px" y="0px"
	 width="96.777px" height="63.783px" viewBox="0 0 96.777 63.783" enable-background="new 0 0 96.777 63.783" xml:space="preserve">
<g>
	<g>
		<g>
			<path fill="#4D5168" d="M35.15,33.874c0,0-0.33,0.939-3.184,1.089c-2.855,0.147-5.957,0.197-9.141,0.543
				c-1.484,0.134-3.696,0.496-7.078-2.077C12.365,30.854,7.36,27.814,0.76,11.841c-0.484-1.188-1.001-2.485-0.639-2.672
				c0.363-0.188,0.551,0.263,0.969,1.22c0.417,0.957,6.512,12.253,10.516,16.61c1.077,1.188,1.937,1.803,2.508,1.045
				c0.571-0.759,0.396-2.112-0.308-3.047s-5.478-7.04-5.125-19.448c0.131-1.98,1.258-5.582,2-5.549c0,0,0.314-0.05,0.101,0.841
				c-0.215,0.891-0.957,3.455-0.804,5.523c0.154,2.067,0.727,12.408,5.587,16.478c0.814,0.483,1.806,0.901,3.234-0.55
				c1.43-1.452,2.838-2.793,4.114-4.136c1.275-1.342,3.036-5.126,3.189-7.545c0.154-2.42,0.902-3.96,1.21-5.083
				c0.309-1.121,0.419-1.841,0.571-1.847c0.155-0.006,0.155,0.104,0.121,0.401c-0.033,0.297-0.285,2.502-0.296,3.811
				c-0.014,1.31,0.286,5.511-1.476,9.206c-1.759,3.697-5.917,5.875-7.414,8.449c-1.494,2.573-1.847,5.125,0.287,6.182
				c2.135,1.057,4.068,1.012,4.785,0.736c0.714-0.274,0.704-0.857,0.286-1.187c-0.419-0.33-1.849-1.584-1.849-1.584
				s-0.494-0.352-0.252-0.736c0.241-0.386,0.483-0.649,0.483-0.649s0.132-0.341,0.758,0.275c0.627,0.615,1.224,1.049,1.676,1.363
				c0.865,0.603,1.372,1.045,1.889,1.276c0.517,0.23,2.2,0.539,3.784,0.462s3.576-0.177,4.313-0.606
				c0.736-0.428,1.705-0.451,1.484,0.177C36.246,31.883,35.15,33.874,35.15,33.874z"/>
		</g>
		<g>
			<path fill="#4D5168" d="M61.627,33.874c0,0,0.33,0.939,3.185,1.089c2.854,0.147,5.956,0.197,9.142,0.543
				c1.484,0.134,3.695,0.496,7.079-2.077c3.382-2.575,8.388-5.615,14.984-21.588c0.484-1.188,1.002-2.485,0.639-2.672
				c-0.362-0.188-0.551,0.263-0.968,1.22c-0.418,0.957-6.512,12.253-10.516,16.61c-1.078,1.188-1.938,1.803-2.508,1.045
				c-0.571-0.759-0.396-2.112,0.308-3.047c0.703-0.935,5.479-7.04,5.125-19.448C87.966,3.569,86.838-0.033,86.096,0
				c0,0-0.313-0.05-0.1,0.841c0.215,0.892,0.958,3.455,0.804,5.522c-0.154,2.067-0.726,12.408-5.588,16.478
				c-0.813,0.483-1.805,0.901-3.234-0.55c-1.43-1.452-2.838-2.793-4.112-4.136c-1.275-1.342-3.035-5.126-3.189-7.545
				c-0.154-2.42-0.902-3.96-1.21-5.083c-0.308-1.121-0.418-1.841-0.572-1.847c-0.152-0.006-0.152,0.104-0.121,0.401
				c0.032,0.297,0.286,2.502,0.298,3.811c0.012,1.31-0.286,5.511,1.475,9.206c1.759,3.697,5.917,5.875,7.413,8.449
				c1.496,2.573,1.849,5.125-0.286,6.182c-2.134,1.057-4.069,1.012-4.784,0.736c-0.715-0.274-0.704-0.857-0.286-1.187
				c0.418-0.33,1.849-1.584,1.849-1.584s0.494-0.352,0.253-0.736c-0.241-0.386-0.483-0.649-0.483-0.649s-0.133-0.341-0.759,0.275
				c-0.627,0.615-1.224,1.049-1.676,1.363c-0.865,0.603-1.372,1.045-1.889,1.276c-0.518,0.23-2.201,0.539-3.785,0.462
				s-3.573-0.177-4.312-0.606c-0.736-0.428-1.705-0.451-1.485,0.177C60.535,31.884,61.627,33.874,61.627,33.874z"/>
		</g>
		<g>
			<g enable-background="new    ">
				<path fill="#4D5168" d="M43.175,31.477c-0.036,0.025-0.167,0.066-0.393,0.124c-0.183,0.054-0.276,0.082-0.28,0.086v-0.555
					c0.144-0.05,0.301-0.119,0.471-0.207s0.295-0.179,0.374-0.272h0.576v4.36h-0.748V31.477z"/>
				<path fill="#4D5168" d="M45.26,34.795c-0.174-0.185-0.265-0.46-0.272-0.826v-0.064h0.716c0,0.208,0.026,0.356,0.078,0.446
					c0.052,0.09,0.153,0.135,0.304,0.135c0.14,0,0.238-0.067,0.293-0.202s0.083-0.367,0.083-0.697v-0.517
					c-0.05,0.086-0.127,0.152-0.231,0.199c-0.104,0.047-0.228,0.07-0.372,0.07c-0.61,0-0.915-0.427-0.915-1.281
					c0-0.456,0.091-0.812,0.272-1.068s0.469-0.385,0.864-0.385c0.388,0,0.675,0.126,0.861,0.379s0.28,0.595,0.28,1.025v1.545
					c0,0.474-0.085,0.846-0.256,1.114c-0.17,0.27-0.465,0.404-0.885,0.404C45.708,35.072,45.434,34.979,45.26,34.795z
					 M46.464,32.537v-0.679c0-0.212-0.028-0.379-0.083-0.5c-0.056-0.122-0.155-0.184-0.299-0.184s-0.243,0.065-0.299,0.196
					s-0.083,0.322-0.083,0.573c0,0.197,0.006,0.351,0.019,0.461c0.013,0.109,0.046,0.198,0.102,0.266
					c0.056,0.068,0.145,0.103,0.267,0.103C46.248,32.773,46.374,32.694,46.464,32.537z"/>
				<path fill="#4D5168" d="M47.696,33.77c0-0.51,0.174-0.861,0.522-1.056c-0.14-0.097-0.251-0.227-0.333-0.39
					s-0.124-0.363-0.124-0.601c0-0.352,0.092-0.626,0.274-0.823c0.183-0.197,0.449-0.296,0.797-0.296
					c0.352,0,0.618,0.099,0.796,0.296c0.18,0.197,0.27,0.472,0.27,0.823c0,0.456-0.151,0.786-0.452,0.99
					c0.348,0.198,0.521,0.555,0.521,1.071c0,0.858-0.379,1.287-1.135,1.287C48.074,35.072,47.696,34.638,47.696,33.77z M49.16,34.3
					c0.054-0.139,0.08-0.32,0.08-0.547c0-0.208-0.029-0.376-0.088-0.503c-0.06-0.127-0.166-0.193-0.321-0.196
					c-0.154,0.003-0.262,0.072-0.323,0.207c-0.062,0.135-0.092,0.312-0.092,0.53c0,0.212,0.029,0.384,0.086,0.517
					c0.057,0.133,0.167,0.199,0.328,0.199C48.996,34.507,49.106,34.438,49.16,34.3z M49.188,31.729c0-0.173-0.029-0.309-0.087-0.409
					s-0.147-0.15-0.269-0.15c-0.122,0-0.213,0.05-0.274,0.15s-0.092,0.235-0.092,0.403c0,0.463,0.122,0.696,0.366,0.7
					C49.069,32.42,49.188,32.188,49.188,31.729z"/>
				<path fill="#4D5168" d="M51.63,31.224h-1.179v-0.571h1.91v0.452l-0.882,3.908h-0.722L51.63,31.224z"/>
			</g>
		</g>
		<g>
			<g enable-background="new    ">
				<path fill="#4D5168" d="M14.291,41.307h3.789c1.296,0,2.314,0.176,3.055,0.526s1.267,0.886,1.577,1.606s0.466,1.677,0.466,2.867
					v5.852c0,1.217-0.156,2.202-0.466,2.956s-0.83,1.319-1.557,1.696c-0.728,0.377-1.713,0.565-2.956,0.565h-3.908V41.307z
					 M18.12,55.333c0.648,0,1.117-0.112,1.408-0.338c0.291-0.225,0.476-0.538,0.556-0.942c0.079-0.403,0.119-1.002,0.119-1.795
					v-6.15c0-0.714-0.046-1.256-0.139-1.626c-0.092-0.37-0.288-0.646-0.585-0.823c-0.298-0.179-0.764-0.269-1.399-0.269h-0.873
					v11.943H18.12z"/>
				<path fill="#4D5168" d="M28.515,41.307h3.135l3.214,16.069h-2.718l-0.635-3.71h-2.797l-0.655,3.71h-2.757L28.515,41.307z
					 M31.194,51.802l-1.091-6.745l-1.091,6.745H31.194z"/>
				<path fill="#4D5168" d="M37.462,41.307h2.917v7.063l3.194-7.063h2.797l-3.075,7.162l3.393,8.907h-2.917l-2.678-7.301
					l-0.714,1.21v6.091h-2.917V41.307z"/>
				<path fill="#4D5168" d="M49.702,56.255c-0.714-0.893-1.071-2.198-1.071-3.918v-6.03c0-1.706,0.357-2.996,1.071-3.869
					s1.905-1.31,3.571-1.31c1.652,0,2.836,0.437,3.551,1.31s1.071,2.163,1.071,3.869v6.03c0,1.706-0.36,3.009-1.081,3.908
					s-1.901,1.349-3.541,1.349C51.608,57.594,50.416,57.147,49.702,56.255z M54.582,54.816c0.225-0.409,0.338-1.005,0.338-1.785
					v-7.399c0-0.78-0.109-1.369-0.328-1.766c-0.218-0.396-0.658-0.596-1.318-0.596c-0.662,0-1.105,0.202-1.33,0.605
					s-0.336,0.989-0.336,1.756v7.399c0,0.78,0.111,1.376,0.336,1.785c0.225,0.41,0.668,0.615,1.33,0.615
					C53.921,55.432,54.358,55.227,54.582,54.816z"/>
				<path fill="#4D5168" d="M62.617,43.47h-2.679v-2.163h8.233v2.163h-2.639v13.906h-2.916V43.47z"/>
				<path fill="#4D5168" d="M72.774,41.307h3.135l3.215,16.069h-2.719l-0.635-3.71h-2.797l-0.654,3.71h-2.758L72.774,41.307z
					 M75.452,51.802l-1.091-6.745l-1.092,6.745H75.452z"/>
			</g>
		</g>
	</g>
</g>
</svg>
